<?xml version="1.0" encoding="utf-8"?>
<!-- Generator: Adobe Illustrator 23.0.3, SVG Export Plug-In . SVG Version: 6.00 Build 0)  -->
<svg version="1.1" id="Layer_1" xmlns="http://www.w3.org/2000/svg" xmlns:xlink="http://www.w3.org/1999/xlink" x="0px" y="0px"
	 viewBox="0 0 142.9 142.9" style="enable-background:new 0 0 142.9 142.9;" xml:space="preserve">
<style type="text/css">
	.st0{fill-rule:evenodd;clip-rule:evenodd;}
	.st1{fill:#FFFFFF;}
</style>
<g>
	<path class="st0" d="M71.4,142.9c39.3,0,71.4-32.1,71.4-71.4S110.8,0,71.4,0S0,32.1,0,71.4S32.1,142.9,71.4,142.9L71.4,142.9z"/>
	<path class="st0" d="M55,85.6c6.4,0,11.6-5.4,11.6-12.1c0-6.7-5.2-12.1-11.6-12.1s-11.6,5.4-11.6,12.1C43.4,80.2,48.6,85.6,55,85.6
		L55,85.6z"/>
	<path class="st0" d="M87.5,85.6c6.4,0,11.6-5.4,11.6-12.1c0-6.7-5.2-12.1-11.6-12.1s-11.6,5.4-11.6,12.1
		C75.9,80.2,81.1,85.6,87.5,85.6L87.5,85.6z"/>
	<path class="st1" d="M119.9,68.9c1.4,0,2.7,0.6,3.6,1.5h0c0.9,0.9,1.5,2.2,1.5,3.6c0,1.4-0.6,2.7-1.5,3.6c-0.9,0.9-2.2,1.5-3.6,1.5
		s-2.7-0.6-3.6-1.5v0c-0.9-0.9-1.5-2.2-1.5-3.6c0-1.4,0.6-2.7,1.5-3.6S118.5,68.9,119.9,68.9L119.9,68.9z M34.1,56.3V35.4h9.3v20.3
		c3.3-2.3,7.3-3.6,11.6-3.6c5.8,0,11,2.4,14.8,6.3c0.5,0.5,1,1.1,1.4,1.7c0.4-0.6,0.9-1.1,1.4-1.7c3.8-3.9,9-6.3,14.8-6.3
		c5.8,0,11,2.4,14.8,6.3c3.8,3.9,6.1,9.2,6.1,15.1c0,0.2,0,0.4,0,0.6l0,0c0,3.4,1.3,6.4,3.4,8.6c2.1,2.2,5,3.5,8.2,3.5
		c3.2,0,6.1-1.3,8.2-3.5c2.1-2.2,3.4-5.2,3.4-8.6c0-3.4-1.3-6.4-3.4-8.6c-2.1-2.1-5-3.5-8.2-3.5c-0.7,0-1.4,0.1-2,0.2
		c-0.6,0.1-1.3,0.3-1.9,0.5l-3.2-8.7c1.1-0.4,2.3-0.8,3.5-1c1.3-0.2,2.5-0.3,3.6-0.3c5.8,0,11,2.4,14.8,6.3
		c3.8,3.9,6.1,9.2,6.1,15.1c0,5.8-2.3,11.2-6.1,15c-3.8,3.9-9,6.3-14.8,6.3c-5.8,0-11-2.4-14.8-6.3c-0.6-0.6-1.1-1.3-1.7-1.9
		c-0.4,0.4-0.8,0.9-1.2,1.3c-3.8,3.9-9,6.3-14.8,6.3s-11-2.4-14.8-6.3c-0.5-0.5-1-1.1-1.4-1.7c-0.5,0.6-1,1.1-1.4,1.7
		c-3.8,3.9-9,6.3-14.8,6.3s-11-2.4-14.8-6.3c-3.6-3.8-5.9-8.8-6.1-14.5l0,0l0,0c0-3.4-1.3-6.4-3.4-8.6c-2.1-2.1-5-3.5-8.2-3.5
		c-3.2,0-6.1,1.3-8.2,3.5c-2.1,2.2-3.4,5.2-3.4,8.6c0,3.4,1.3,6.4,3.4,8.6c2.1,2.2,5,3.5,8.2,3.5c0.7,0,1.4-0.1,2-0.2
		c0.6-0.1,1.3-0.3,1.9-0.5l3.2,8.6c-1.1,0.4-2.3,0.8-3.5,1c-1.3,0.2-2.5,0.3-3.6,0.3c-5.8,0-11-2.4-14.8-6.3
		c-3.8-3.9-6.1-9.2-6.1-15c0-5.9,2.3-11.2,6.1-15.1c3.8-3.9,9-6.3,14.8-6.3C26.8,52.7,30.8,54,34.1,56.3L34.1,56.3z M43.4,73.5
		L43.4,73.5c0,3.4,1.3,6.5,3.4,8.6c2.1,2.2,5,3.5,8.2,3.5s6.1-1.3,8.2-3.5c2.1-2.2,3.4-5.2,3.4-8.6c0-3.4-1.3-6.4-3.4-8.6
		c-2.1-2.1-5-3.5-8.2-3.5s-6.1,1.3-8.2,3.5C44.7,67.1,43.4,70.1,43.4,73.5L43.4,73.5z M95.7,64.9c-2.1-2.1-4.9-3.5-8.2-3.5
		c-3.2,0-6.1,1.3-8.2,3.5c-2.1,2.2-3.4,5.2-3.4,8.6c0,3.4,1.3,6.4,3.4,8.6c2.1,2.2,5,3.5,8.2,3.5c3.2,0,6.1-1.3,8.2-3.5
		c2.1-2.2,3.4-5.2,3.4-8.6C99.1,70.1,97.8,67.1,95.7,64.9L95.7,64.9z M81.1,35.4c1.4,0,2.7,0.6,3.6,1.5l0,0c0.9,0.9,1.5,2.2,1.5,3.6
		c0,1.4-0.6,2.7-1.5,3.6c-0.9,0.9-2.2,1.5-3.6,1.5c-1.4,0-2.7-0.6-3.6-1.5l0,0c-0.9-0.9-1.5-2.2-1.5-3.6c0-1.4,0.6-2.7,1.5-3.6
		C78.4,36,79.7,35.4,81.1,35.4L81.1,35.4z M93.4,35.4c1.4,0,2.7,0.6,3.6,1.5h0c0.9,0.9,1.5,2.2,1.5,3.6c0,1.4-0.6,2.7-1.5,3.6
		c-0.9,0.9-2.2,1.5-3.6,1.5s-2.7-0.6-3.6-1.5l0,0c-0.9-0.9-1.5-2.2-1.5-3.6c0-1.4,0.6-2.7,1.5-3.6C90.7,36,91.9,35.4,93.4,35.4
		L93.4,35.4z"/>
</g>
</svg>
