<?xml version="1.0" encoding="utf-8"?>
<!-- Generator: Adobe Illustrator 24.1.0, SVG Export Plug-In . SVG Version: 6.00 Build 0)  -->
<svg version="1.1" id="Layer_1" xmlns="http://www.w3.org/2000/svg" xmlns:xlink="http://www.w3.org/1999/xlink" x="0px" y="0px"
	 viewBox="0 0 45.6 43.2" style="enable-background:new 0 0 45.6 43.2;" xml:space="preserve">
<style type="text/css">
	.st0{fill:#939598;}
	.st1{fill:#F1F2F2;}
</style>
<rect class="st0" width="45.6" height="43.2"/>
<g>
	<path class="st1" d="M38.8,27.7c-0.2-0.2-0.4-0.3-0.7-0.3l-0.3,0l-0.1,0c-0.3,0.1-0.6,0.4-0.6,0.9l0,5.5l-8.7-8.2
		c-0.3-0.3-0.6-0.4-0.9-0.4c-0.2,0-0.5,0.1-0.6,0.3c-0.2,0.2-0.6,0.7,0.2,1.4l8.7,8.2l-5.8,0c-0.4,0-0.7,0.1-0.9,0.3
		C29,35.7,28.9,36,29,36.3c0,0.2,0.2,0.8,1.1,0.8l9.1,0c0,0,0-5.9,0-8.7C39.1,28.1,39,27.9,38.8,27.7z"/>
	<path class="st1" d="M18,25.3c-0.3,0-0.6,0.1-0.9,0.4l-8.7,8.2l0-5.5c0-0.6-0.3-0.8-0.6-0.9l-0.3-0.1H7.4c-0.3,0-0.5,0.1-0.7,0.3
		c-0.2,0.2-0.3,0.4-0.3,0.6c0,2.7,0,8.7,0,8.7h1.4l7.7,0c0.9,0,1-0.5,1.1-0.8c0-0.3,0-0.5-0.2-0.7c-0.2-0.2-0.5-0.3-0.9-0.3l-5.8,0
		l8.7-8.2c0.8-0.7,0.4-1.2,0.2-1.4C18.5,25.4,18.3,25.3,18,25.3z"/>
	<path class="st1" d="M27.6,17.9c0.3,0,0.6-0.1,0.9-0.4l8.7-8.2l0,5.5c0,0.6,0.3,0.8,0.6,0.9l0.3,0.1h0.1c0.3,0,0.5-0.1,0.7-0.3
		c0.2-0.2,0.3-0.4,0.3-0.6c0-2.7,0-8.7,0-8.7l-9.1,0c-0.9,0-1,0.5-1.1,0.8c0,0.3,0,0.5,0.2,0.7C29.3,7.9,29.7,8,30,8l5.8,0l-8.7,8.2
		c-0.8,0.7-0.4,1.2-0.2,1.4C27.1,17.9,27.3,17.9,27.6,17.9z"/>
	<path class="st1" d="M9.8,8l5.8,0c0.4,0,0.7-0.1,0.9-0.3c0.2-0.2,0.2-0.4,0.2-0.7c0-0.2-0.2-0.8-1.1-0.8l-9.1,0c0,0,0,5.9,0,8.7
		c0,0.2,0.1,0.4,0.3,0.6c0.2,0.2,0.4,0.3,0.7,0.3l0.3,0l0.1,0c0.3-0.1,0.6-0.4,0.6-0.9l0-5.5l8.7,8.2c0.3,0.3,0.6,0.4,0.9,0.4
		c0.2,0,0.5-0.1,0.6-0.3c0.2-0.2,0.6-0.7-0.2-1.4L9.8,8z"/>
</g>
</svg>
