<?xml version="1.0" encoding="utf-8"?>
<!-- Generator: Adobe Illustrator 23.0.3, SVG Export Plug-In . SVG Version: 6.00 Build 0)  -->
<svg version="1.1" id="Layer_1" xmlns="http://www.w3.org/2000/svg" xmlns:xlink="http://www.w3.org/1999/xlink" x="0px" y="0px"
	 viewBox="0 0 45.6 43.2" style="enable-background:new 0 0 45.6 43.2;" xml:space="preserve">
<style type="text/css">
	.st0{fill:#929496;}
</style>
<g>
	<path class="st0" d="M32.9,43.2c-1.2,0-1.4-0.7-1.5-1.1c-0.1-0.4,0-0.8,0.3-1c0.3-0.3,0.7-0.5,1.2-0.5H41L28.8,29.2
		c-1.1-1-0.5-1.8-0.3-2s0.6-0.4,0.9-0.4c0.4,0,0.8,0.2,1.3,0.6l12.2,11.6v-7.8c0-0.8,0.5-1.2,0.9-1.3l0.1,0l0.4-0.1
		c0.4,0,0.7,0.2,0.9,0.4c0.2,0.3,0.3,0.6,0.4,0.9c0,3.8,0,12.2,0,12.2L32.9,43.2z"/>
	<path class="st0" d="M43.4,39.9c0-0.3,0-0.4,0-0.5c0-2.7,0-5.5,0-8.2c0-0.4,0.2-0.8,0.6-0.9c0.3-0.1,0.7-0.1,0.9,0.2
		c0.1,0.2,0.3,0.4,0.3,0.6c0,3.8,0,11.8,0,11.8s-1,0-1.5,0c-3.6,0-7.2,0-10.7,0c-0.6,0-1-0.2-1-0.7c-0.1-0.6,0.3-1,1.1-1
		c2.1,0,4.3,0,6.4,0c0.9,0,1.7,0,2.7,0c-0.2-0.2-0.3-0.3-0.4-0.4c-4.2-4-8.3-7.9-12.5-11.9c-0.6-0.5-0.7-1-0.3-1.4
		c0.4-0.4,0.9-0.3,1.5,0.2c4.2,4,8.4,7.9,12.5,11.9C43.1,39.7,43.2,39.8,43.4,39.9z"/>
	<path class="st0" d="M0,43.3c0,0,0-8.3,0-12.2c0-0.3,0.1-0.6,0.4-0.9c0.2-0.3,0.6-0.4,0.9-0.4h0.1l0.4,0.1c0.4,0.2,0.9,0.5,0.9,1.3
		v7.8l12.2-11.6c0.4-0.4,0.9-0.6,1.3-0.6c0.3,0,0.6,0.1,0.9,0.4s0.8,1-0.3,2L4.6,40.7h8.1c0.5,0,1,0.2,1.2,0.5
		c0.2,0.3,0.3,0.6,0.3,1c0,0.3-0.3,1-1.5,1.1H2L0,43.3L0,43.3z"/>
	<path class="st0" d="M29.5,16.5c-0.3,0-0.6-0.1-0.9-0.4s-0.8-1,0.3-2L41,2.5h-8.1c-0.5,0-1-0.2-1.2-0.5c-0.2-0.3-0.3-0.6-0.3-1
		c0-0.3,0.3-1,1.5-1h12.7c0,0,0,8.3,0,12.2c0,0.3-0.1,0.6-0.4,0.9c-0.2,0.3-0.6,0.4-0.9,0.4h-0.1l-0.4-0.1c-0.4-0.1-0.9-0.5-0.9-1.3
		V4.3L30.7,15.9C30.3,16.3,29.9,16.5,29.5,16.5L29.5,16.5z"/>
	<path class="st0" d="M43.4,3.3c0,0.3,0,0.4,0,0.5c0,2.7,0,5.5,0,8.2c0,0.4,0.2,0.8,0.6,0.9c0.3,0.1,0.7,0.1,0.9-0.2
		c0.1-0.2,0.3-0.4,0.3-0.6c0-3.9,0-11.8,0-11.8s-1,0-1.5,0c-3.6,0-7.2,0-10.7,0c-0.6,0-1,0.2-1,0.7c-0.1,0.6,0.3,1,1.1,1
		c2.1,0,4.3,0,6.4,0c0.9,0,1.7,0,2.7,0c-0.2,0.2-0.3,0.3-0.4,0.4c-4.2,4-8.3,7.9-12.5,11.9c-0.6,0.5-0.7,1-0.3,1.4
		c0.4,0.4,0.9,0.3,1.5-0.2c4.2-4,8.4-7.9,12.5-11.9C43.1,3.6,43.2,3.5,43.4,3.3z"/>
	<path class="st0" d="M16.1,16.5c-0.4,0-0.8-0.2-1.3-0.6L2.7,4.3v7.8c0,0.8-0.5,1.1-0.9,1.3l-0.1,0l-0.4,0.1c-0.4,0-0.7-0.1-0.9-0.4
		C0.2,12.8,0,12.5,0,12.2C0,8.3,0,0,0,0h12.7c1.2,0,1.4,0.7,1.5,1c0.1,0.4,0,0.8-0.3,1c-0.3,0.3-0.7,0.5-1.2,0.5H4.6l12.2,11.5
		c1.1,1,0.5,1.8,0.3,2C16.8,16.4,16.5,16.5,16.1,16.5z"/>
	<path class="st0" d="M2.2,3.3c0,0.3,0,0.4,0,0.5c0,2.7,0,5.5,0,8.2c0,0.4-0.2,0.8-0.6,0.9c-0.4,0.1-0.7,0.1-0.9-0.2
		c-0.1-0.2-0.3-0.4-0.3-0.6c0-3.9,0-11.8,0-11.8s1,0,1.5,0c3.6,0,7.2,0,10.7,0c0.6,0,1,0.2,1,0.7c0.1,0.6-0.3,1-1.1,1
		c-2.1,0-4.3,0-6.4,0c-0.9,0-1.7,0-2.7,0c0.2,0.2,0.3,0.3,0.4,0.4c4.2,4,8.3,7.9,12.5,11.9c0.6,0.5,0.7,1,0.3,1.4
		c-0.4,0.4-0.9,0.3-1.5-0.2C11,11.6,6.8,7.6,2.6,3.7C2.5,3.6,2.4,3.5,2.2,3.3z"/>
</g>
</svg>
