<svg xmlns="http://www.w3.org/2000/svg" viewBox="0 0 26.14932 23.9565"><defs><style>.cls-1{fill:none;stroke:#939598;stroke-miterlimit:10;stroke-width:0.5px;}</style></defs><title>Asset 6</title><g id="Layer_2" data-name="Layer 2"><g id="Layer_1-2" data-name="Layer 1"><rect class="cls-1" x="0.25" y="0.25" width="25.64932" height="4.91723"/><rect class="cls-1" x="0.25" y="5.16723" width="25.64932" height="18.53927"/><circle class="cls-1" cx="2.83598" cy="2.89135" r="0.63311"/><circle class="cls-1" cx="5.18384" cy="2.89135" r="0.63311"/><circle class="cls-1" cx="7.53171" cy="2.89135" r="0.63311"/><polygon class="cls-1" points="7.161 17.46 9.154 16.353 11.413 17.533 11.413 10.372 2.111 10.372 2.111 15.777 4.458 13.429 7.161 17.46"/><polygon class="cls-1" points="9.154 16.353 7.161 17.46 4.458 13.429 2.111 15.777 2.111 18.612 11.413 18.612 11.413 17.533 9.154 16.353"/><circle class="cls-1" cx="8.51183" cy="13.4069" r="1.04103"/><polygon class="cls-1" points="19.786 17.46 21.779 16.353 24.039 17.533 24.039 10.372 14.736 10.372 14.736 15.777 17.084 13.429 19.786 17.46"/><polygon class="cls-1" points="21.779 16.353 19.786 17.46 17.084 13.429 14.736 15.777 14.736 18.612 24.039 18.612 24.039 17.533 21.779 16.353"/><circle class="cls-1" cx="21.13714" cy="13.4069" r="1.04103"/></g></g></svg>