<?xml version="1.0" encoding="utf-8"?>
<!-- Generator: Adobe Illustrator 23.0.3, SVG Export Plug-In . SVG Version: 6.00 Build 0)  -->
<svg version="1.1" id="Layer_1" xmlns="http://www.w3.org/2000/svg" xmlns:xlink="http://www.w3.org/1999/xlink" x="0px" y="0px"
	 viewBox="0 0 46 33" style="enable-background:new 0 0 46 33;" xml:space="preserve">
<style type="text/css">
	.st0{fill:#00A693;}
	.st1{fill:#FFFFFF;}
</style>
<title>Asset 6</title>
<rect class="st0" width="46" height="33"/>
<g>
	<path class="st1" d="M7,1.8v29.5H39V1.8H7z M38.4,30.6H7.6V8.5h30.8V30.6z M7.6,2.4h30.8v5.4H7.6V2.4z"/>
	<path class="st1" d="M10.4,4.2c-0.6,0-1,0.5-1,1.1c0,0.6,0.4,1.1,1,1.1c0.6,0,1.1-0.5,1.1-1.1C11.5,4.7,11,4.2,10.4,4.2z M10.4,5.8
		c-0.2,0-0.5-0.2-0.5-0.5c0-0.2,0.2-0.5,0.5-0.5c0.2,0,0.5,0.2,0.5,0.5C10.9,5.6,10.7,5.8,10.4,5.8z"/>
	<path class="st1" d="M13.4,4.2c-0.6,0-1.1,0.5-1.1,1.1c0,0.6,0.5,1.1,1.1,1.1c0.6,0,1.1-0.5,1.1-1.1C14.5,4.7,14,4.2,13.4,4.2z
		 M13.4,5.8c-0.2,0-0.5-0.2-0.5-0.5c0-0.2,0.2-0.5,0.5-0.5c0.2,0,0.5,0.2,0.5,0.5C13.8,5.6,13.6,5.8,13.4,5.8z"/>
	<path class="st1" d="M16.2,4.2c-0.6,0-1.1,0.5-1.1,1.1c0,0.6,0.5,1.1,1.1,1.1c0.6,0,1.1-0.5,1.1-1.1C17.3,4.7,16.8,4.2,16.2,4.2z
		 M16.2,5.8c-0.2,0-0.5-0.2-0.5-0.5c0-0.2,0.2-0.5,0.5-0.5c0.2,0,0.5,0.2,0.5,0.5C16.7,5.6,16.4,5.8,16.2,5.8z"/>
	<path class="st1" d="M21.2,14.2H9.3V25h11.9V14.2z M9.9,14.8h10.7v7.9l-2.5-1.3l-2.3,1.4l-3.3-5l-2.6,2.7V14.8z M20.7,24.4H9.8v-3
		l2.6-2.6l3.3,4.9l2.6-1.5l2.5,1.2V24.4z"/>
	<path class="st1" d="M17.4,19.8c0.9,0,1.6-0.7,1.6-1.6c0-0.9-0.7-1.6-1.6-1.6s-1.6,0.7-1.6,1.6C15.8,19.1,16.6,19.8,17.4,19.8z
		 M17.4,17.2c0.5,0,1,0.5,1,1c0,0.5-0.5,1-1,1c-0.5,0-1-0.5-1-1C16.4,17.7,16.9,17.2,17.4,17.2z"/>
	<path class="st1" d="M24.8,25h11.9v-1.3l0,0v-9.5H24.8v7.6l0,0V25z M25.4,14.8h10.7v8l-2.5-1.4l-2.3,1.4l-3.3-5l-2.5,2.6l-0.1,0.1
		V14.8z M25.4,21.3l2.5-2.5l3.3,4.9l2.6-1.5l2.5,1.2v0.9H25.4V21.3z"/>
	<path class="st1" d="M32.9,19.8c0.9,0,1.6-0.7,1.6-1.6c0-0.9-0.7-1.6-1.6-1.6s-1.6,0.7-1.6,1.6C31.3,19.1,32,19.8,32.9,19.8z
		 M32.9,17.2c0.6,0,1,0.5,1,1c0,0.5-0.5,1-1,1c-0.5,0-1-0.5-1-1C31.9,17.7,32.4,17.2,32.9,17.2z"/>
</g>
</svg>
