<?xml version="1.0" encoding="utf-8"?>
<!-- Generator: Adobe Illustrator 23.0.3, SVG Export Plug-In . SVG Version: 6.00 Build 0)  -->
<svg version="1.1" id="Layer_1" xmlns="http://www.w3.org/2000/svg" xmlns:xlink="http://www.w3.org/1999/xlink" x="0px" y="0px"
	 viewBox="0 0 45.6 41.8" style="enable-background:new 0 0 45.6 41.8;" xml:space="preserve">
<style type="text/css">
	.st0{fill:#00A693;}
	.st1{fill:#FFFFFF;}
</style>
<rect class="st0" width="45.6" height="41.8"/>
<g>
	<g>
		<g>
			<path class="st1" d="M45.6,9.7H0V0h45.6V9.7z M1.2,8.5h43.1V1.2H1.2V8.5z"/>
		</g>
		<g>
			<path class="st1" d="M45.6,41.8H0V8.5h45.6V41.8z M1.2,40.6h43.1V9.7H1.2V40.6z"/>
		</g>
	</g>
	<g>
		<path class="st1" d="M5.1,6.9c-0.9,0-1.7-0.8-1.7-1.7s0.8-1.7,1.7-1.7s1.7,0.8,1.7,1.7S6,6.9,5.1,6.9z M5.1,4.7
			c-0.3,0-0.5,0.2-0.5,0.5s0.2,0.5,0.5,0.5s0.5-0.2,0.5-0.5C5.6,4.9,5.4,4.7,5.1,4.7z"/>
	</g>
	<g>
		<path class="st1" d="M9.2,6.9c-0.9,0-1.7-0.8-1.7-1.7s0.8-1.7,1.7-1.7s1.7,0.8,1.7,1.7S10.1,6.9,9.2,6.9z M9.2,4.7
			c-0.3,0-0.5,0.2-0.5,0.5s0.2,0.5,0.5,0.5s0.5-0.2,0.5-0.5C9.6,4.9,9.4,4.7,9.2,4.7z"/>
	</g>
	<g>
		<path class="st1" d="M13.2,6.9c-0.9,0-1.7-0.8-1.7-1.7s0.8-1.7,1.7-1.7s1.7,0.8,1.7,1.7S14.2,6.9,13.2,6.9z M13.2,4.7
			c-0.3,0-0.5,0.2-0.5,0.5s0.2,0.5,0.5,0.5s0.5-0.2,0.5-0.5C13.7,4.9,13.5,4.7,13.2,4.7z"/>
	</g>
	<g>
		<g>
			<g>
				<g>
					<path class="st1" d="M20.5,31.5L16,29.2l-3.7,2l-4.6-6.8L3.1,29V17.5h17.3C20.5,17.5,20.5,31.5,20.5,31.5z M8,22.4l4.8,7.1
						l3.2-1.8l3.3,1.7V18.7H4.4V26L8,22.4z"/>
				</g>
				<g>
					<path class="st1" d="M20.5,33H3.2v-5.8L8,22.4l4.8,7.1l3.2-1.8l4.5,2.4V33z M4.4,31.8h14.9v-0.9L16,29.2l-3.7,2l-4.6-6.8
						l-3.4,3.3C4.4,27.7,4.4,31.8,4.4,31.8z"/>
				</g>
			</g>
			<g>
				<path class="st1" d="M14.9,25.8c-1.3,0-2.4-1.1-2.4-2.4s1.1-2.4,2.4-2.4s2.4,1.1,2.4,2.4S16.2,25.8,14.9,25.8z M14.9,22.2
					c-0.7,0-1.2,0.5-1.2,1.2s0.5,1.2,1.2,1.2s1.2-0.5,1.2-1.2S15.6,22.2,14.9,22.2z"/>
			</g>
		</g>
		<g>
			<g>
				<g>
					<path class="st1" d="M42.4,31.5l-4.5-2.4l-3.7,2l-4.6-6.8L25,28.9V17.5h17.3v14H42.4z M29.8,22.4l4.8,7.1l3.2-1.8l3.3,1.7V18.7
						H26.3V26L29.8,22.4z"/>
				</g>
				<g>
					<path class="st1" d="M42.4,33H25v-5.8l4.8-4.8l4.8,7.1l3.2-1.8l4.5,2.4L42.4,33L42.4,33z M26.3,31.8h14.9v-0.9l-3.3-1.7l-3.7,2
						l-4.6-6.8l-3.3,3.3L26.3,31.8L26.3,31.8z"/>
				</g>
			</g>
			<g>
				<path class="st1" d="M36.7,25.8c-1.3,0-2.4-1.1-2.4-2.4s1.1-2.4,2.4-2.4s2.4,1.1,2.4,2.4S38.1,25.8,36.7,25.8z M36.7,22.2
					c-0.7,0-1.2,0.5-1.2,1.2s0.5,1.2,1.2,1.2s1.2-0.5,1.2-1.2S37.4,22.2,36.7,22.2z"/>
			</g>
		</g>
	</g>
</g>
</svg>
