<?xml version="1.0" encoding="utf-8"?>
<!-- Generator: Adobe Illustrator 23.0.3, SVG Export Plug-In . SVG Version: 6.00 Build 0)  -->
<svg version="1.1" id="Layer_1" xmlns="http://www.w3.org/2000/svg" xmlns:xlink="http://www.w3.org/1999/xlink" x="0px" y="0px"
	 viewBox="0 0 45.6 41.8" style="enable-background:new 0 0 45.6 41.8;" xml:space="preserve">
<style type="text/css">
	.st0{fill:#929496;}
</style>
<g>
	<g>
		<g>
			<path class="st0" d="M45.6,9.7H0V0h45.6L45.6,9.7L45.6,9.7z M1.2,8.5h43.1V1.2H1.2V8.5z"/>
		</g>
		<g>
			<path class="st0" d="M45.6,41.8H0V8.5h45.6L45.6,41.8L45.6,41.8z M1.2,40.6h43.1V9.7H1.2V40.6z"/>
		</g>
	</g>
	<g>
		<path class="st0" d="M5.1,6.9c-0.9,0-1.7-0.8-1.7-1.7s0.8-1.7,1.7-1.7c0.9,0,1.7,0.8,1.7,1.7S6,6.9,5.1,6.9z M5.1,4.7
			c-0.3,0-0.5,0.2-0.5,0.5c0,0.3,0.2,0.5,0.5,0.5c0.3,0,0.5-0.2,0.5-0.5C5.6,4.9,5.3,4.7,5.1,4.7z"/>
	</g>
	<g>
		<path class="st0" d="M9.1,6.9c-0.9,0-1.7-0.8-1.7-1.7s0.8-1.7,1.7-1.7c0.9,0,1.7,0.8,1.7,1.7S10.1,6.9,9.1,6.9z M9.1,4.7
			c-0.3,0-0.5,0.2-0.5,0.5c0,0.3,0.2,0.5,0.5,0.5c0.3,0,0.5-0.2,0.5-0.5C9.6,4.9,9.4,4.7,9.1,4.7z"/>
	</g>
	<g>
		<path class="st0" d="M13.2,6.9c-0.9,0-1.7-0.8-1.7-1.7s0.8-1.7,1.7-1.7s1.7,0.8,1.7,1.7S14.1,6.9,13.2,6.9z M13.2,4.7
			c-0.3,0-0.5,0.2-0.5,0.5c0,0.3,0.2,0.5,0.5,0.5s0.5-0.2,0.5-0.5C13.7,4.9,13.5,4.7,13.2,4.7z"/>
	</g>
	<g>
		<path class="st0" d="M26.2,22.7h-6.8v-6.8h6.8V22.7z M20.6,21.5H25v-4.3h-4.3V21.5z"/>
	</g>
	<g>
		<g>
			<path class="st0" d="M13.8,34.8H7V28h6.8V34.8z M8.3,33.6h4.4v-4.3H8.3V33.6z"/>
		</g>
		<g>
			<path class="st0" d="M26.2,34.8h-6.8V28h6.8V34.8z M20.6,33.6H25v-4.3h-4.3V33.6z"/>
		</g>
		<g>
			<path class="st0" d="M38.5,34.8h-6.8V28h6.8V34.8z M33,33.6h4.3v-4.3H33V33.6z"/>
		</g>
	</g>
	<g>
		<rect x="22.2" y="22.2" class="st0" width="1.2" height="6.5"/>
	</g>
	<g>
		<polygon class="st0" points="11.3,28.7 10.1,28.7 10.1,24.6 35.5,24.6 35.5,28.6 34.3,28.6 34.3,25.9 11.3,25.9 		"/>
	</g>
</g>
</svg>
