<svg xmlns="http://www.w3.org/2000/svg" viewBox="0 0 2.72982 15.65824"><defs><style>.cls-1{fill:#f1f2f2;}</style></defs><title>Asset 13</title><g id="Layer_2" data-name="Layer 2"><g id="Layer_1-2" data-name="Layer 1"><path class="cls-1" d="M1.376,2.6645A1.34892,1.34892,0,0,1,.36033,2.29306,1.352,1.352,0,0,1,0,1.31026,1.26227,1.26227,0,0,1,.37144.36033,1.37977,1.37977,0,0,1,1.376,0a1.34152,1.34152,0,0,1,.99347.36033,1.28373,1.28373,0,0,1,.36033.94993,1.35017,1.35017,0,0,1-.36033.9828A1.31817,1.31817,0,0,1,1.376,2.6645ZM2.48989,4.58613V15.65824H.28391V4.58613Z"/></g></g></svg>