<?xml version="1.0" encoding="utf-8"?>
<!-- Generator: Adobe Illustrator 23.0.3, SVG Export Plug-In . SVG Version: 6.00 Build 0)  -->
<svg version="1.1" id="Layer_1" xmlns="http://www.w3.org/2000/svg" xmlns:xlink="http://www.w3.org/1999/xlink" x="0px" y="0px"
	 viewBox="0 0 50 50" style="enable-background:new 0 0 50 50;" xml:space="preserve">
<style type="text/css">
	.st0{fill:#D0D1D3;}
	.st1{fill:#F1F1F2;}
</style>
<g>
	<path class="st0" d="M0,25c0.1-13.9,11.3-25,25.1-25c13.8,0.1,25,11.4,24.9,25.1C49.9,38.9,38.7,50,25,50C11.3,50,0,38.8,0,25z"/>
	<path class="st1" d="M33,11.8c-5.4,0-10.8,0-16.1,0c-3.3,0-5.7,2.5-5.6,5.6c0.1,2.7,0,5.4,0,8c0,2.7,0,5.3,0,8c0,0,0,0.1,0,0.2
		c-0.2,3.2,2.5,5.5,5.5,5.5c5.4-0.1,10.7,0,16.1,0c3.3,0,5.5-2.3,5.6-5.5c0-5.4,0-10.7,0-16.1C38.5,14.1,36.3,11.8,33,11.8z
		 M30.8,19.5c0-1.5,0-2.9,0-4.5l0,0c1.5,0,3,0,4.5,0l0,0c0,1.5,0,3,0,4.5l0,0C33.8,19.5,32.3,19.5,30.8,19.5L30.8,19.5z M24.9,20.6
		c2.6,0,4.8,2.2,4.8,4.8c0,2.7-2.1,4.8-4.8,4.8c-2.7,0-4.8-2.2-4.8-4.8C20.1,22.7,22.3,20.6,24.9,20.6z M35.8,33.6
		c0,0.8-0.3,1.5-0.7,2s-1.2,0.7-2,0.7c-2.7,0-5.5,0-8.2,0s-5.5,0-8.2,0c-1.6,0-2.7-1-2.7-2.6c0-3.6,0-7.2,0-10.9c0,0,0-0.1,0-0.1
		s0,0,0-0.1c1.3,0,2.5,0,3.9,0c-0.3,1-0.4,1.9-0.4,2.7c0,2.2,0.7,4.1,2.5,5.5c0.3,0.3,0.8,0.6,1.2,0.8c2,1.2,4.1,1.5,6.1,0.7
		c0.7-0.3,1.3-0.6,2-1.1c0.7-0.5,1.3-1.1,1.8-1.8c1.2-1.6,1.5-3.5,1.1-5.7c-0.1-0.4-0.2-0.9-0.3-1.3c1.2,0,2.3,0,3.5,0
		c0.1,0,0.3,0,0.5,0c0,0.2,0,0.4,0,0.6C35.8,26.7,35.8,30.2,35.8,33.6z"/>
</g>
</svg>
