<svg xmlns="http://www.w3.org/2000/svg" viewBox="0 0 26.14932 23.9565"><defs><style>.cls-1{fill:none;stroke:#939598;stroke-miterlimit:10;stroke-width:0.5px;}</style></defs><title>Asset 1</title><g id="Layer_2" data-name="Layer 2"><g id="Layer_1-2" data-name="Layer 1"><rect class="cls-1" x="0.25" y="5.16723" width="25.64932" height="18.53927"/><rect class="cls-1" x="0.25" y="0.25" width="25.64932" height="4.91723"/><circle class="cls-1" cx="2.83598" cy="2.89135" r="0.63311"/><circle class="cls-1" cx="5.18385" cy="2.89135" r="0.63311"/><circle class="cls-1" cx="7.53171" cy="2.89135" r="0.63311"/><line class="cls-1" x1="14.05338" y1="7.71444" x2="23.3175" y2="7.71444"/><line class="cls-1" x1="14.05338" y1="10.04016" x2="23.3175" y2="10.04016"/><line class="cls-1" x1="14.05338" y1="13.32938" x2="23.3175" y2="13.32938"/><line class="cls-1" x1="14.05338" y1="15.6551" x2="23.3175" y2="15.6551"/><line class="cls-1" x1="14.05338" y1="18.94432" x2="23.3175" y2="18.94432"/><line class="cls-1" x1="14.05338" y1="21.27004" x2="23.3175" y2="21.27004"/><line class="cls-1" x1="2.56402" y1="7.71444" x2="11.82814" y2="7.71444"/><line class="cls-1" x1="2.56402" y1="10.04016" x2="11.82814" y2="10.04016"/><line class="cls-1" x1="2.56402" y1="13.32938" x2="11.82814" y2="13.32938"/><line class="cls-1" x1="2.56402" y1="15.6551" x2="11.82814" y2="15.6551"/><line class="cls-1" x1="2.56402" y1="18.94432" x2="11.82814" y2="18.94432"/><line class="cls-1" x1="2.56402" y1="21.27004" x2="11.82814" y2="21.27004"/></g></g></svg>