<svg xmlns="http://www.w3.org/2000/svg" viewBox="0 0 15.67496 15.65824"><defs><style>.cls-1{fill:#f1f2f2;}</style></defs><title>Asset 12</title><g id="Layer_2" data-name="Layer 2"><g id="Layer_1-2" data-name="Layer 1"><path class="cls-1" d="M10.70923,9.86783q1.24827,1.24631,2.48915,2.48523c.82844.82705,1.65694,1.654,2.47658,2.47223l-.83377.83295-4.95371-4.9619a6.0014,6.0014,0,0,1-4.85338,1.2901A5.85008,5.85008,0,0,1,1.3345,9.81656,6.03385,6.03385,0,0,1,9.71092,1.24942a5.9031,5.9031,0,0,1,2.3209,4.098A5.95923,5.95923,0,0,1,10.70923,9.86783ZM1.20893,6.03119A4.82914,4.82914,0,1,0,6.01025,1.20887,4.83086,4.83086,0,0,0,1.20893,6.03119Z"/></g></g></svg>