<svg xmlns="http://www.w3.org/2000/svg" viewBox="0 0 26.14986 23.957"><defs><style>.cls-1{fill:none;stroke:#939598;stroke-miterlimit:10;stroke-width:0.5px;}</style></defs><title>Asset 5</title><g id="Layer_2" data-name="Layer 2"><g id="Layer_1-2" data-name="Layer 1"><rect class="cls-1" x="0.25" y="0.25" width="25.64986" height="23.457"/><line class="cls-1" x1="0.1171" y1="5.16733" x2="25.94416" y2="5.16733"/><circle class="cls-1" cx="2.83603" cy="2.8914" r="0.63312"/><circle class="cls-1" cx="5.18394" cy="2.8914" r="0.63312"/><circle class="cls-1" cx="7.53186" cy="2.8914" r="0.63312"/><polygon class="cls-1" points="7.582 14 7.582 21.353 10.063 21.353 10.063 16.48 7.582 14"/><path class="cls-1" d="M18.61247,10.32279H15.90014c.00057.02385.00362.047.00362.07109a2.7973,2.7973,0,0,1-.18342.99926l-.03119.07843c-.09335.22422-2.59209,4.4897-2.59209,4.4897s-2.49873-4.26548-2.59208-4.4897l-.03119-.07843a2.79964,2.79964,0,0,1-.18331-.99926c0-.02408.00294-.04724.00362-.07109H7.58166v3.6769l2.48087,2.48077L12.942,19.36005l5.62616-5.62617L12.942,19.36005l1.97141,1.9713L12.942,19.36005l-.02215.02215.02215-.02215-2.87948-2.87959v4.873h8.54994Z"/><path class="cls-1" d="M11.534,10.32279a1.56317,1.56317,0,0,1,3.12619,0"/><path class="cls-1" d="M15.90014,10.32279a2.80385,2.80385,0,0,0-5.606,0"/><path class="cls-1" d="M10.2941,10.32279c-.00068.02385-.00362.047-.00362.07109a2.79964,2.79964,0,0,0,.18331.99926l.03119.07843c.09335.22422,2.59208,4.4897,2.59208,4.4897s2.49874-4.26548,2.59209-4.4897l.03119-.07843a2.7973,2.7973,0,0,0,.18342-.99926c0-.02408-.003-.04724-.00362-.07109"/><path class="cls-1" d="M14.66016,10.32279l.00079.0156a1.56389,1.56389,0,0,1-3.12777,0l.00079-.0156"/><path class="cls-1" d="M14.66016,10.32279a1.56317,1.56317,0,0,0-3.12619,0"/><path class="cls-1" d="M11.534,10.32279l-.00079.0156a1.56389,1.56389,0,0,0,3.12777,0l-.00079-.0156"/></g></g></svg>