<?xml version="1.0" encoding="utf-8"?>
<!-- Generator: Adobe Illustrator 23.0.3, SVG Export Plug-In . SVG Version: 6.00 Build 0)  -->
<svg version="1.1" id="Layer_1" xmlns="http://www.w3.org/2000/svg" xmlns:xlink="http://www.w3.org/1999/xlink" x="0px" y="0px"
	 viewBox="0 0 45.6 41.8" style="enable-background:new 0 0 45.6 41.8;" xml:space="preserve">
<style type="text/css">
	.st0{fill:#929496;}
</style>
<g>
	<g>
		<path class="st0" d="M45.6,41.8H0V0h45.6V41.8L45.6,41.8z M1.2,40.6h43.1V1.2H1.2V40.6z"/>
	</g>
	<g>
		<rect x="0.4" y="8.5" class="st0" width="44.7" height="1.2"/>
	</g>
	<g>
		<path class="st0" d="M5.1,6.9c-0.9,0-1.7-0.8-1.7-1.7s0.8-1.7,1.7-1.7s1.7,0.8,1.7,1.7S6,6.9,5.1,6.9z M5.1,4.7
			c-0.3,0-0.5,0.2-0.5,0.5s0.2,0.5,0.5,0.5s0.5-0.2,0.5-0.5C5.6,4.9,5.3,4.7,5.1,4.7z"/>
	</g>
	<g>
		<path class="st0" d="M9.1,6.9c-0.9,0-1.7-0.8-1.7-1.7s0.8-1.7,1.7-1.7s1.7,0.8,1.7,1.7C10.9,6.1,10.1,6.9,9.1,6.9z M9.1,4.7
			c-0.3,0-0.5,0.2-0.5,0.5s0.2,0.5,0.5,0.5s0.5-0.2,0.5-0.5C9.6,4.9,9.4,4.7,9.1,4.7z"/>
	</g>
	<g>
		<path class="st0" d="M13.2,6.9c-0.9,0-1.7-0.8-1.7-1.7s0.8-1.7,1.7-1.7s1.7,0.8,1.7,1.7S14.1,6.9,13.2,6.9z M13.2,4.7
			c-0.3,0-0.5,0.2-0.5,0.5s0.2,0.5,0.5,0.5s0.5-0.2,0.5-0.5C13.7,4.9,13.5,4.7,13.2,4.7z"/>
	</g>
	<g>
		<path class="st0" d="M18.2,37.7h-5.5V22.9l5.5,5.5V37.7z M13.9,36.5H17v-7.6l-3.1-3.1V36.5z"/>
	</g>
	<g>
		<path class="st0" d="M33,37.7H17v-8.8l-4.3-4.3v-7.2h5.9V18c0,0.6,0.1,1.1,0.3,1.6c0.2,0.4,2.3,4.1,4,6.9c1.7-2.8,3.8-6.5,3.9-6.8
			c0.2-0.6,0.3-1.1,0.3-1.6v-0.6l0.6-0.1H33V37.7L33,37.7z M26.3,36.5h5.5V25.3l-8.3,8.3L26.3,36.5z M18.2,36.5h6.3l-6.3-6.3V36.5z
			 M17,27.2l5.6,5.6l9.2-9.2v-5h-3.5c0,0.5-0.2,1-0.3,1.5l-0.1,0.1c-0.2,0.4-3.5,6.1-4.5,7.8l-0.6,1l-0.5-0.9
			c-1-1.7-4.4-7.4-4.5-7.8l-0.1-0.1c-0.2-0.5-0.3-1-0.3-1.5h-3.5v5.5L17,27.2z"/>
	</g>
	<g>
		<path class="st0" d="M24.9,18c0-1.1-1-2.1-2.1-2.1s-2.1,0.9-2.1,2.1h-1.2c0-1.8,1.5-3.3,3.3-3.3s3.3,1.5,3.3,3.3H24.9z"/>
	</g>
	<g>
		<path class="st0" d="M27.1,18.1C27,15.8,25.2,14,22.9,14s-4.2,1.8-4.2,4.1h-1.2c0.1-3,2.5-5.3,5.5-5.3s5.4,2.3,5.5,5.3H27.1z"/>
	</g>
	<g>
		<path class="st0" d="M22.8,29l-0.5-0.9c-1-1.7-4.4-7.4-4.5-7.8l-0.1-0.1c-0.2-0.6-0.4-1.3-0.4-2L18,18h0.6v0.1
			c0,0.5,0.1,1,0.3,1.5c0.2,0.4,2.3,4.1,4,6.9c1.7-2.8,3.8-6.5,3.9-6.8c0.2-0.6,0.3-1.1,0.3-1.6l1.2-0.2c0,0.8-0.1,1.5-0.3,2.1
			l-0.1,0.1c-0.2,0.4-3.5,6.1-4.5,7.8L22.8,29z"/>
	</g>
	<g>
		<path class="st0" d="M22.8,21.4c-1.8,0-3.3-1.5-3.3-3.3h1.2c0,1.2,0.9,2.1,2.1,2.1s2.1-0.9,2.1-2.1h1.2l0,0
			C26.1,19.9,24.7,21.4,22.8,21.4z"/>
	</g>
	<g>
		<path class="st0" d="M24.9,18.1c0-1.1-1-2.2-2.1-2.2s-2.1,1-2.1,2.2l-1.2,0c0-1.8,1.5-3.4,3.3-3.4s3.3,1.6,3.3,3.4H24.9z"/>
	</g>
	<g>
		<path class="st0" d="M22.8,21.4c-1.8,0-3.3-1.5-3.3-3.3h1.2l0,0c0,1.2,0.9,2.1,2.1,2.1s2.1-0.9,2.1-2.1h1.2
			C26.1,19.9,24.7,21.4,22.8,21.4z"/>
	</g>
</g>
</svg>
