<?xml version="1.0" encoding="utf-8"?>
<!-- Generator: Adobe Illustrator 23.0.3, SVG Export Plug-In . SVG Version: 6.00 Build 0)  -->
<svg version="1.1" id="Layer_1" xmlns="http://www.w3.org/2000/svg" xmlns:xlink="http://www.w3.org/1999/xlink" x="0px" y="0px"
	 viewBox="0 0 45.6 41.8" style="enable-background:new 0 0 45.6 41.8;" xml:space="preserve">
<style type="text/css">
	.st0{fill:#929496;}
</style>
<g>
	<g>
		<g>
			<path class="st0" d="M45.6,9.7H0V0h45.6V9.7z M1.2,8.5h43.1V1.2H1.2V8.5z"/>
		</g>
		<g>
			<path class="st0" d="M45.6,41.8H0V8.5h45.6V41.8z M1.2,40.6h43.1V9.7H1.2V40.6z"/>
		</g>
	</g>
	<g>
		<path class="st0" d="M5.1,6.9c-0.9,0-1.7-0.8-1.7-1.7s0.8-1.7,1.7-1.7s1.7,0.8,1.7,1.7S6,6.9,5.1,6.9z M5.1,4.7
			c-0.3,0-0.5,0.2-0.5,0.5s0.2,0.5,0.5,0.5s0.5-0.2,0.5-0.5C5.6,4.9,5.4,4.7,5.1,4.7z"/>
	</g>
	<g>
		<path class="st0" d="M9.1,6.9c-0.9,0-1.7-0.8-1.7-1.7s0.8-1.7,1.7-1.7s1.7,0.8,1.7,1.7S10.1,6.9,9.1,6.9z M9.1,4.7
			c-0.3,0-0.5,0.2-0.5,0.5s0.2,0.5,0.5,0.5s0.5-0.2,0.5-0.5C9.6,4.9,9.4,4.7,9.1,4.7z"/>
	</g>
	<g>
		<path class="st0" d="M13.2,6.9c-0.9,0-1.7-0.8-1.7-1.7s0.8-1.7,1.7-1.7s1.7,0.8,1.7,1.7S14.1,6.9,13.2,6.9z M13.2,4.7
			c-0.3,0-0.5,0.2-0.5,0.5s0.2,0.5,0.5,0.5s0.5-0.2,0.5-0.5C13.7,4.9,13.5,4.7,13.2,4.7z"/>
	</g>
	<g>
		<g>
			<rect x="18.3" y="21.7" class="st0" width="1.2" height="6.5"/>
		</g>
		<g>
			<g>
				<path class="st0" d="M22.3,22.3h-6.8v-6.8h6.8V22.3z M16.8,21.1h4.3v-4.4h-4.3V21.1z"/>
			</g>
			<g>
				<g>
					<path class="st0" d="M10,34.3H3.2v-6.8H10V34.3z M4.4,33.1h4.4v-4.4H4.4V33.1z"/>
				</g>
				<g>
					<path class="st0" d="M22.3,34.3h-6.8v-6.8h6.8V34.3z M16.8,33.1h4.3v-4.4h-4.3V33.1z"/>
				</g>
			</g>
			<g>
				<polygon class="st0" points="7.5,28.3 6.2,28.3 6.2,24.2 18.9,24.2 18.9,25.4 7.5,25.4 				"/>
			</g>
		</g>
	</g>
	<g>
		<g>
			<path class="st0" d="M29.4,34.3h-4.6v-12l4.6,4.6V34.3z M26.1,33.1h2.1v-5.7l-2.1-2.1V33.1z"/>
		</g>
		<g>
			<path class="st0" d="M41,34.3H28.2v-7L24.9,24v-5.8h4.9v0.6c0,0.5,0.1,0.9,0.2,1.2c0.2,0.3,1.7,3.1,3,5.2c1.2-2.1,2.8-4.8,3-5.1
				c0.2-0.4,0.2-0.8,0.2-1.2v-0.6l0.6-0.1H41V34.3L41,34.3z M35.7,33.1h4.1v-8.3L33.6,31L35.7,33.1z M29.4,33.1h4.5l-4.5-4.5
				C29.4,28.6,29.4,33.1,29.4,33.1z M26.1,23.5l6.7,6.7l7.1-7.1v-3.7h-2.5c0,0.4-0.1,0.7-0.3,1.1s-2.6,4.5-3.6,6.3L33,27.7l-0.5-0.9
				c-1-1.8-3.4-5.8-3.5-6.2c-0.2-0.4-0.3-0.8-0.3-1.2h-2.5C26.1,19.4,26.1,23.5,26.1,23.5z"/>
		</g>
		<g>
			<path class="st0" d="M34.4,18.8c0-0.8-0.7-1.5-1.5-1.5s-1.5,0.7-1.5,1.5h-1.2c0-1.5,1.2-2.7,2.7-2.7s2.7,1.2,2.7,2.7H34.4z"/>
		</g>
		<g>
			<path class="st0" d="M29.8,18.8h-1.2c0.1-2.4,2-4.3,4.4-4.3s4.3,1.9,4.4,4.3h-1.2c0-1.7-1.5-3.1-3.2-3.1
				C31.2,15.7,29.8,17.1,29.8,18.8z"/>
		</g>
		<g>
			<path class="st0" d="M32.9,27.6l-0.5-0.9c-1-1.8-3.4-5.8-3.6-6.2c-0.2-0.6-0.3-1.2-0.3-1.7l1.2-0.1v0.1c0,0.4,0.1,0.8,0.2,1.1
				c0.2,0.3,1.7,3.1,3,5.2c1.2-2.1,2.8-4.8,3-5.1c0.2-0.4,0.2-0.8,0.2-1.2l1.2-0.1c0,0.7-0.1,1.2-0.3,1.7c-0.2,0.4-2.6,4.5-3.6,6.3
				L32.9,27.6z"/>
		</g>
		<g>
			<path class="st0" d="M32.9,21.6c-1.5,0-2.7-1.2-2.7-2.7h1.2c0,0.8,0.7,1.5,1.5,1.5s1.5-0.7,1.5-1.5h1.2l0,0
				C35.7,20.3,34.4,21.6,32.9,21.6z"/>
		</g>
		<g>
			<path class="st0" d="M34.4,18.9c0-0.8-0.7-1.6-1.5-1.6s-1.5,0.8-1.5,1.6h-1.2c0-1.5,1.2-2.8,2.7-2.8s2.7,1.3,2.7,2.8L34.4,18.9z"
				/>
		</g>
		<g>
			<path class="st0" d="M32.9,21.6c-1.5,0-2.7-1.2-2.7-2.7h1.2l0,0c0,0.8,0.7,1.5,1.5,1.5s1.5-0.7,1.5-1.5h1.2
				C35.7,20.3,34.4,21.6,32.9,21.6z"/>
		</g>
	</g>
</g>
</svg>
