<?xml version="1.0" encoding="utf-8"?>
<!-- Generator: Adobe Illustrator 23.0.3, SVG Export Plug-In . SVG Version: 6.00 Build 0)  -->
<svg version="1.1" id="Layer_1" xmlns="http://www.w3.org/2000/svg" xmlns:xlink="http://www.w3.org/1999/xlink" x="0px" y="0px"
	 viewBox="0 0 46 33" style="enable-background:new 0 0 46 33;" xml:space="preserve">
<style type="text/css">
	.st0{fill:#00A693;}
	.st1{fill:#FFFFFF;}
</style>
<rect class="st0" width="46" height="33"/>
<title>Asset 7</title>
<g>
	<path class="st1" d="M7,1.8v6v0.6v22.7h32V8.5V7.9v-6H7z M38.4,30.5H7.6V8.5h30.8V30.5z M38.4,7.9H7.6V2.5h30.8V7.9z"/>
	<path class="st1" d="M10.5,6.5c0.6,0,1.1-0.5,1.1-1.1s-0.5-1.1-1.1-1.1c-0.6,0-1.1,0.5-1.1,1.1S9.9,6.5,10.5,6.5z M10.5,4.9
		c0.3,0,0.5,0.2,0.5,0.5c0,0.3-0.2,0.5-0.5,0.5c-0.3,0-0.5-0.2-0.5-0.5C10,5.1,10.2,4.9,10.5,4.9z"/>
	<path class="st1" d="M13.3,6.5c0.6,0,1.1-0.5,1.1-1.1s-0.5-1.1-1.1-1.1c-0.6,0-1.1,0.5-1.1,1.1S12.7,6.5,13.3,6.5z M13.3,4.9
		c0.3,0,0.5,0.2,0.5,0.5c0,0.3-0.2,0.5-0.5,0.5c-0.3,0-0.5-0.2-0.5-0.5C12.9,5.1,13.1,4.9,13.3,4.9z"/>
	<path class="st1" d="M16.2,6.5c0.6,0,1.1-0.5,1.1-1.1s-0.5-1.1-1.1-1.1s-1.1,0.5-1.1,1.1S15.6,6.5,16.2,6.5z M16.2,4.9
		c0.3,0,0.5,0.2,0.5,0.5c0,0.3-0.2,0.5-0.5,0.5s-0.5-0.2-0.5-0.5C15.7,5.1,16,4.9,16.2,4.9z"/>
	<path class="st1" d="M13.8,21.3H12v-1.7H20v1.7h-2v4.6h4.6v-4.6h-2v-4h2v-4.6H18v4.6h2V19h-8.6v2.4H9.2v4.6h4.6V21.3z M18.6,16.7
		v-3.3h3.3v3.3H18.6z M21.9,21.9v3.3h-3.3v-3.3H21.9z M13.2,25.3H9.9v-3.3h3.3V25.3z"/>
	<path class="st1" d="M27.6,25.9h8.2V14.7h-2.6c-0.2-1.5-1.5-2.7-3-2.6c-1.5,0-2.7,1.2-2.9,2.6h-2.6v3.1v0.9v7.2L27.6,25.9
		L27.6,25.9z M27.6,25.3v-3.6l3.6,3.6H27.6z M35.2,25.3h-3.1l-1.6-1.6l4.7-4.7V25.3z M27.8,15c0-1.3,1.1-2.3,2.3-2.3
		c1.3,0,2.4,1,2.4,2.3l0,0l0,0.1c0,0.3-0.1,0.6-0.2,0.8l0,0.1c-0.1,0.2-1.3,2.2-2.2,3.8c-0.9-1.6-2.1-3.6-2.2-3.8l0-0.1
		C27.9,15.7,27.8,15.4,27.8,15L27.8,15z M25.2,15.3h2c0,0,0,0.1,0,0.1c0,0.3,0.1,0.5,0.2,0.7l0,0.1c0.1,0.2,1.9,3.4,2.5,4.3l0.3,0.5
		l0.3-0.5c0.6-1,2.4-4.1,2.5-4.3l0-0.1c0.1-0.2,0.1-0.5,0.2-0.7c0,0,0-0.1,0-0.1h2v2.8L30,23.2l-2.5-2.5l-2.4-2.4V15.3z M27,25.3
		h-1.8v-6L27,21V25.3z"/>
	<path class="st1" d="M30.2,16.8c1,0,1.8-0.8,1.8-1.8h0c0,0,0,0,0,0c0,0,0,0,0,0l0,0l0,0c0-0.5-0.2-0.9-0.5-1.2c0,0,0,0,0,0
		c-0.2-0.1-0.3-0.3-0.5-0.3c0,0,0,0-0.1,0c-0.2-0.1-0.4-0.1-0.6-0.1c0,0,0,0,0,0c0,0,0,0,0,0c0,0,0,0,0,0c0,0-0.1,0-0.1,0
		c-0.1,0-0.1,0-0.2,0c0,0,0,0-0.1,0c-0.3,0.1-0.6,0.2-0.8,0.5c-0.3,0.3-0.5,0.8-0.5,1.3l0.3,0l0.3,0c0-0.4,0.3-0.8,0.6-1
		c0,0,0.1,0,0.1-0.1c0.1,0,0.2-0.1,0.3-0.1c0,0,0.1,0,0.1,0c0,0,0,0,0,0c0,0,0.1,0,0.1,0c0.1,0,0.2,0,0.3,0.1c0,0,0.1,0,0.1,0.1
		c0.4,0.2,0.6,0.6,0.6,1l0.2,0l-0.2,0c0,0.7-0.5,1.2-1.2,1.2c-0.7,0-1.2-0.5-1.2-1.2l-0.3,0l-0.3,0C28.4,16,29.2,16.8,30.2,16.8z"/>
</g>
</svg>
