<?xml version="1.0" encoding="utf-8"?>
<!-- Generator: Adobe Illustrator 23.0.3, SVG Export Plug-In . SVG Version: 6.00 Build 0)  -->
<svg version="1.1" id="Layer_1" xmlns="http://www.w3.org/2000/svg" xmlns:xlink="http://www.w3.org/1999/xlink" x="0px" y="0px"
	 viewBox="0 0 46 33" style="enable-background:new 0 0 46 33;" xml:space="preserve">
<style type="text/css">
	.st0{fill:#00A693;}
	.st1{fill:#FFFFFF;}
</style>
<rect class="st0" width="46" height="33"/>
<title>Asset 5</title>
<g>
	<path class="st1" d="M7,1.8v29.3h32V1.8H7z M38.4,2.5v5.4H7.6V2.5H38.4z M7.6,30.5V8.5h30.8v22.1H7.6z"/>
	<path class="st1" d="M10.5,6.5c0.6,0,1.1-0.5,1.1-1.1s-0.5-1.1-1.1-1.1c-0.6,0-1.1,0.5-1.1,1.1S9.9,6.5,10.5,6.5z M10.5,4.9
		c0.3,0,0.5,0.2,0.5,0.5c0,0.3-0.2,0.5-0.5,0.5c-0.3,0-0.5-0.2-0.5-0.5C10,5.1,10.2,4.9,10.5,4.9z"/>
	<path class="st1" d="M13.4,6.5c0.6,0,1.1-0.5,1.1-1.1S14,4.3,13.4,4.3s-1.1,0.5-1.1,1.1S12.8,6.5,13.4,6.5z M13.4,4.9
		c0.3,0,0.5,0.2,0.5,0.5c0,0.3-0.2,0.5-0.5,0.5c-0.3,0-0.5-0.2-0.5-0.5C12.9,5.1,13.1,4.9,13.4,4.9z"/>
	<path class="st1" d="M16.2,6.5c0.6,0,1.1-0.5,1.1-1.1s-0.5-1.1-1.1-1.1c-0.6,0-1.1,0.5-1.1,1.1S15.6,6.5,16.2,6.5z M16.2,4.9
		c0.3,0,0.5,0.2,0.5,0.5c0,0.3-0.2,0.5-0.5,0.5c-0.3,0-0.5-0.2-0.5-0.5C15.8,5.1,16,4.9,16.2,4.9z"/>
	<path class="st1" d="M25.6,11.9c-0.7-0.7-1.7-1-2.7-1c-1.9,0-3.4,1.5-3.6,3.3H16v4.9l0,0v9.2h3v0h11.1V14.2h-3.4
		C26.7,13.3,26.3,12.5,25.6,11.9z M23,11.4c0.8,0,1.6,0.3,2.2,0.9c0.6,0.6,0.9,1.4,1,2.2l0,0l0,0.1c0,0.4-0.1,0.8-0.2,1.1l0,0.1
		c-0.1,0.2-1.7,3-2.9,5c-1.2-2-2.8-4.8-2.9-5l0-0.1c-0.1-0.4-0.2-0.7-0.2-1.1l0-0.1h0C20,12.8,21.3,11.5,23,11.4z M16.6,27.7v-8
		l2.4,2.4v5.5H16.6z M19.6,27.7v-4.9l4.9,4.9H19.6z M29.5,27.7h-4.1l-2.1-2.1l6.2-6.2V27.7z M29.5,18.5l-6.6,6.6l-3.2-3.2v0l-3-3
		v-4.1h2.7c0,0.1,0,0.2,0,0.3c0,0.1,0,0.1,0,0.2c0,0.2,0.1,0.4,0.2,0.6l0,0.1c0.1,0.3,2.7,4.7,3.2,5.5L23,22l0.3-0.5
		c0.5-0.9,3.1-5.3,3.2-5.5l0-0.1c0.1-0.2,0.1-0.4,0.2-0.6c0-0.1,0-0.1,0-0.2c0-0.1,0-0.2,0-0.3h2.7V18.5z"/>
	<path class="st1" d="M22.5,16.6c0,0,0.1,0,0.1,0c0.1,0,0.1,0,0.2,0c0.1,0,0.1,0,0.2,0c0,0,0,0,0,0c0,0,0,0,0,0c0,0,0,0,0,0
		c0,0,0,0,0,0c0,0,0.1,0,0.1,0c0.1,0,0.2,0,0.3,0c0,0,0,0,0.1,0c0.4-0.1,0.8-0.3,1-0.6c0.4-0.4,0.7-1,0.7-1.6l0,0l0,0
		c0-0.9-0.5-1.6-1.2-1.9c0,0-0.1,0-0.1-0.1c0,0-0.1,0-0.1,0c-0.1,0-0.2-0.1-0.3-0.1c0,0,0,0-0.1,0c-0.1,0-0.2,0-0.4,0c0,0,0,0,0,0
		c0,0,0,0,0,0c0,0,0,0,0,0c-0.1,0-0.1,0-0.2,0c-0.1,0-0.1,0-0.2,0c0,0-0.1,0-0.1,0c-0.9,0.2-1.6,1.1-1.7,2.1l0.3,0l0.3,0
		c0-0.6,0.4-1.1,0.9-1.4c0,0,0.1,0,0.1-0.1c0.1,0,0.2,0,0.3-0.1c0.1,0,0.2-0.1,0.3-0.1c0.1,0,0.2,0,0.3,0.1c0.1,0,0.2,0,0.3,0.1
		c0,0,0.1,0.1,0.1,0.1c0.5,0.3,0.9,0.8,0.9,1.4l0.3,0l-0.3,0c0,0.6-0.3,1.1-0.8,1.4c0,0-0.1,0.1-0.1,0.1c-0.1,0-0.2,0-0.3,0.1
		c-0.1,0-0.2,0.1-0.3,0.1c-0.1,0-0.2,0-0.3-0.1c-0.1,0-0.2,0-0.3-0.1c0,0,0,0,0,0c-0.6-0.3-0.9-0.8-0.9-1.5l-0.3,0l-0.3,0
		C20.8,15.5,21.5,16.4,22.5,16.6z"/>
</g>
</svg>
