<svg xmlns="http://www.w3.org/2000/svg" viewBox="0 0 26.14932 23.9565"><defs><style>.cls-1{fill:none;stroke:#939598;stroke-miterlimit:10;stroke-width:0.5px;}</style></defs><title>Asset 7</title><g id="Layer_2" data-name="Layer 2"><g id="Layer_1-2" data-name="Layer 1"><rect class="cls-1" x="0.25" y="0.25" width="25.64932" height="4.91723"/><rect class="cls-1" x="0.25" y="5.16723" width="25.64932" height="18.53927"/><circle class="cls-1" cx="2.83598" cy="2.89135" r="0.63311"/><circle class="cls-1" cx="5.18384" cy="2.89135" r="0.63311"/><circle class="cls-1" cx="7.53171" cy="2.89135" r="0.63311"/><line class="cls-1" x1="10.84062" y1="12.45387" x2="10.84062" y2="16.20824"/><rect class="cls-1" x="9.22923" y="9.19787" width="3.22278" height="3.22278"/><rect class="cls-1" x="2.08596" y="16.17501" width="3.22278" height="3.22278"/><rect class="cls-1" x="9.22923" y="16.17501" width="3.22278" height="3.22278"/><polyline class="cls-1" points="3.847 16.241 3.847 14.248 10.841 14.248"/><polygon class="cls-1" points="14.626 13.64 14.626 19.398 16.568 19.398 16.568 15.582 14.626 13.64"/><path class="cls-1" d="M23.263,10.76057H21.1392c.00044.01867.00283.03681.00283.05566a2.19035,2.19035,0,0,1-.14362.78244l-.02443.06141c-.07309.17557-2.02964,3.51551-2.02964,3.51551s-1.95655-3.33994-2.02964-3.51551l-.02443-.06141a2.19226,2.19226,0,0,1-.14353-.78244c0-.01885.0023-.037.00283-.05566H14.62568v2.87907l1.94257,1.94248,2.25468,2.25477,4.40538-4.40538-4.40538,4.40538,1.54365,1.54355-1.54365-1.54355-.01735.01734.01735-.01734-2.25468-2.25477v3.81567H23.263Z"/><path class="cls-1" d="M17.72041,10.76057a1.224,1.224,0,0,1,2.44786,0"/><path class="cls-1" d="M21.1392,10.76057a2.19547,2.19547,0,0,0-4.38963,0"/><path class="cls-1" d="M16.74957,10.76057c-.00053.01867-.00283.03681-.00283.05566a2.19226,2.19226,0,0,0,.14353.78244l.02443.06141c.07309.17557,2.02964,3.51551,2.02964,3.51551s1.95655-3.33994,2.02964-3.51551l.02443-.06141a2.19035,2.19035,0,0,0,.14362-.78244c0-.01885-.00239-.037-.00283-.05566"/><path class="cls-1" d="M20.16827,10.76057l.00062.01221a1.22455,1.22455,0,0,1-2.4491,0l.00062-.01221"/><path class="cls-1" d="M20.16827,10.76057a1.224,1.224,0,0,0-2.44786,0"/><path class="cls-1" d="M17.72041,10.76057l-.00062.01221a1.22455,1.22455,0,0,0,2.4491,0l-.00062-.01221"/></g></g></svg>