<?xml version="1.0" encoding="utf-8"?>
<!-- Generator: Adobe Illustrator 23.0.3, SVG Export Plug-In . SVG Version: 6.00 Build 0)  -->
<svg version="1.1" id="Layer_1" xmlns="http://www.w3.org/2000/svg" xmlns:xlink="http://www.w3.org/1999/xlink" x="0px" y="0px"
	 viewBox="0 0 193.4 132.1" style="enable-background:new 0 0 193.4 132.1;" xml:space="preserve">
<style type="text/css">
	.st0{clip-path:url(#SVGID_2_);}
	.st1{clip-path:url(#SVGID_4_);}
</style>
<g>
	<g>
		<path d="M41.7,16.1c-1.3,0-2.4-0.1-3.3-0.3c-0.9-0.2-1.6-0.5-2-0.9c-0.5-0.4-0.8-0.9-1-1.3s-0.3-1-0.3-1.7c0-1,0.2-2.2,0.7-3.7
			l2.1,0.4c-0.2,1-0.3,1.8-0.3,2.3c0,0.6,0.1,1,0.3,1.4c0.2,0.3,0.7,0.6,1.4,0.8c0.7,0.2,1.7,0.3,3,0.3c2,0,3.8-0.2,5.1-0.7
			c0-1.2-0.2-2.5-0.5-4.1L49.3,8c0.3,1.2,0.5,2.5,0.5,3.8c0,1.2-0.2,2.1-0.5,2.8C47.8,15.6,45.2,16.1,41.7,16.1z M44.3,8.2l-1.5-1.3
			l-1.2,1.3L40,6.9l1.3-1.5l1.5,1.3L44,5.3l1.6,1.4L44.3,8.2z"/>
		<path d="M55.6,13.4c0,2-0.4,3.5-1.3,4.7s-2.1,1.8-3.8,1.8c-0.6,0-1.2-0.1-1.8-0.2l0.2-2.3c0.3,0,0.7,0.1,1,0.1
			c1.2,0,2-0.4,2.6-1.1c0.5-0.8,0.8-1.7,0.8-2.8c0-0.9-0.3-2.3-0.8-4.2L55,8.8C55.4,10.4,55.6,11.9,55.6,13.4z"/>
		<path d="M60.3,16h-2.4V2.3l2.4-0.2V16z"/>
		<path d="M66.3,13.4c0,2-0.4,3.5-1.3,4.7c-0.8,1.2-2.1,1.8-3.8,1.8c-0.6,0-1.2-0.1-1.8-0.2l0.2-2.3c0.3,0,0.7,0.1,1,0.1
			c1.2,0,2-0.4,2.6-1.1c0.5-0.8,0.8-1.7,0.8-2.8c0-0.9-0.3-2.3-0.8-4.2l2.4-0.7C66.1,10.4,66.3,11.9,66.3,13.4z M63.8,4.7l1.8,1.5
			l-1.4,1.6l-1.8-1.5L63.8,4.7z"/>
		<path d="M70.4,20c-0.7,0-1.4-0.1-2.1-0.3l0.2-2.3c0.5,0.1,1,0.1,1.5,0.1c1.2,0,2.2-0.2,2.8-0.7s1.1-1,1.2-1.6
			c-0.7,0.3-1.4,0.4-2.2,0.4c-2.4,0-3.6-1.2-3.6-3.6c0-1.3,0.4-2.5,1.1-3.4c0.7-0.9,1.7-1.4,2.8-1.4c1.2,0,2.3,0.6,3.1,1.7
			c0.8,1.1,1.2,2.6,1.2,4.4c0,2.1-0.5,3.7-1.5,4.8C73.8,19.4,72.3,20,70.4,20z M72.7,13.2c0.5,0,1-0.1,1.4-0.2
			c-0.1-0.8-0.3-1.6-0.7-2.2c-0.4-0.7-0.9-1-1.5-1c-0.5,0-0.9,0.2-1.2,0.6s-0.4,0.8-0.4,1.3c0,0.5,0.2,0.9,0.5,1.2
			C71.2,13.1,71.8,13.2,72.7,13.2z"/>
		<path d="M27.2,45.5c-1.7,0-2.9-0.4-3.8-1.2s-1.3-1.9-1.3-3.4c0-1.5,0.4-3,1.3-4.6l1.9,0.8c-0.5,1.2-0.7,2.2-0.7,3.1
			c0,1.8,1,2.7,3.2,2.7c1.1,0,2-0.2,2.6-0.7c0.7-0.5,1-1.1,1-1.9c0-1.1-0.3-2.7-0.9-4.6l2.4-0.7c0.4,1.5,0.7,2.6,0.8,3.4
			c0.4,0.2,0.9,0.3,1.4,0.3c0.6,0,1-0.1,1.4-0.4c0.4-0.3,0.5-0.7,0.5-1.2v-1.8l2.2-0.2v2.2c0,0.9,0.5,1.4,1.5,1.4
			c0.6,0,1.1-0.1,1.6-0.3c0-0.8-0.2-2-0.5-3.7l2.3-0.5c0.3,1.2,0.4,2.2,0.4,3.1c0,1.3-0.1,2.4-0.4,3.2c-1.1,0.6-2.2,0.9-3.4,0.9
			c-1.2,0-2-0.3-2.6-1c-0.6,0.7-1.6,1.1-3.1,1.1c-0.4,0-0.9,0-1.4-0.1c-0.3,1.4-1,2.4-2,3.2C30.4,45.1,29,45.5,27.2,45.5z
			 M39.3,33.5l-1.5-1.2l-1.2,1.4L35,32.3l1.3-1.5l1.5,1.3l1.2-1.4l1.6,1.4L39.3,33.5z M37.5,28.5l1.5,1.2l-1.2,1.4l-1.5-1.2
			L37.5,28.5z"/>
		<path d="M50.1,38.7c0,2-0.4,3.5-1.3,4.7s-2.1,1.8-3.8,1.8c-0.6,0-1.2-0.1-1.8-0.2l0.2-2.3c0.3,0.1,0.7,0.1,1,0.1
			c1.2,0,2-0.4,2.6-1.1s0.8-1.7,0.8-2.8c0-0.9-0.3-2.3-0.8-4.2l2.4-0.7C49.9,35.7,50.1,37.3,50.1,38.7z M47.6,30l1.8,1.5l-1.5,1.6
			l-1.8-1.4L47.6,30z"/>
		<path d="M54.2,45.3c-0.7,0-1.4-0.1-2.1-0.3l0.2-2.3c0.5,0.1,1,0.1,1.5,0.1c1.1,0,2-0.2,2.7-0.6s1.1-0.9,1.3-1.4
			c-0.5,0.1-1.2,0.1-2,0.1c-1.4,0-2.3-0.3-2.9-1s-0.8-1.5-0.8-2.6c0-1.3,0.4-2.4,1.1-3.4s1.7-1.4,2.8-1.4c1.2,0,2.2,0.5,3,1.6
			c0.8,1,1.2,2.5,1.2,4.3h1.1v2.8h-1.4C59.1,44,57.2,45.3,54.2,45.3z M56.6,38.5H58c0-0.8-0.3-1.6-0.6-2.3s-0.9-1.1-1.6-1.1
			c-0.5,0-0.9,0.2-1.2,0.6c-0.3,0.4-0.4,0.8-0.4,1.3c0,0.5,0.2,0.9,0.6,1.1C55.1,38.4,55.7,38.5,56.6,38.5z"/>
		<path d="M67.7,41.3c-1.5,0-2.8-0.3-3.9-0.9c-0.6,0.6-1.4,0.9-2.3,0.9h-0.2c-0.2,0-0.3-0.1-0.4-0.4c-0.1-0.3-0.2-0.6-0.2-1
			s0.1-0.7,0.2-1c0.1-0.3,0.3-0.4,0.4-0.4h0.3c0.5,0,0.9-0.2,1.2-0.5c0.3-0.4,0.7-0.9,1-1.7c0-0.1,0-0.1,0.1-0.1c0,0,0-0.1,0.1-0.1
			s0-0.1,0.1-0.1c0.5-0.9,1-1.7,1.6-2.2c0.6-0.5,1.3-0.7,2.3-0.7c1.1,0,2,0.4,2.6,1.3s1,1.9,1,3.2c0,1.3-0.2,2.4-0.7,3.4
			C70.1,41.2,69,41.3,67.7,41.3z M68.2,38.8c0.4,0,0.8,0,1.2-0.1c0.1-0.3,0.1-0.7,0.1-0.9c0-0.7-0.1-1.2-0.4-1.6
			c-0.3-0.4-0.7-0.6-1.2-0.6c-0.5,0-0.9,0.2-1.2,0.5c-0.3,0.3-0.8,1-1.3,2c-0.1,0.2-0.1,0.3-0.2,0.3C66,38.6,67,38.8,68.2,38.8z"/>
		<path d="M78.1,26.7l0.5,1.3c-0.6,0.4-1.3,0.7-2.1,0.7c-0.4,0-1-0.1-1.7-0.3c-0.7-0.2-1.2-0.3-1.4-0.3c-0.4,0-0.8,0.2-1.2,0.6
			l-0.9-1.1c0.6-0.8,1.3-1.3,2.1-1.3c0.3,0,0.8,0.1,1.6,0.3s1.3,0.3,1.7,0.3C77.3,26.9,77.7,26.9,78.1,26.7z M76.2,41.3h-2.4V29.6
			l2.4-0.2V41.3z"/>
		<path d="M6.4,70.9c-1.7,0-2.9-0.4-3.8-1.2s-1.3-1.9-1.3-3.4c0-1.5,0.4-3,1.3-4.6l1.9,0.8c-0.5,1.2-0.7,2.2-0.7,3.1
			c0,1.8,1.1,2.7,3.2,2.7c1.1,0,2-0.2,2.6-0.7c0.7-0.5,1-1.1,1-1.9c0-1.1-0.3-2.7-0.9-4.6l2.4-0.7c0.4,1.5,0.7,2.6,0.8,3.4
			c0.4,0.2,0.9,0.2,1.4,0.2c0.6,0,1-0.1,1.4-0.4c0.4-0.3,0.5-0.7,0.5-1.2v-1.8l2.2-0.2v2.2c0,0.9,0.5,1.4,1.5,1.4s1.5-0.4,1.5-1.3
			v-2.4l2.2-0.2v2.6c0,0.4,0,0.7-0.1,1c0.4,0.2,1.1,0.3,2.1,0.3h0.3v2.8h-0.4c-1.1,0-2.1-0.3-2.9-0.9c-0.6,0.6-1.5,0.9-2.7,0.9
			c-1.1,0-2-0.3-2.6-1c-0.6,0.7-1.6,1.1-3,1.1c-0.4,0-0.9,0-1.4-0.1c-0.3,1.4-1,2.4-2,3.2C9.6,70.5,8.2,70.9,6.4,70.9z M18.5,58.8
			L17,57.6l-1.2,1.4l-1.6-1.3l1.3-1.5l1.5,1.3l1.2-1.4l1.6,1.4L18.5,58.8z M16.7,53.8l1.5,1.2L17,56.4l-1.5-1.2L16.7,53.8z"/>
		<path d="M35.1,67.2c-1.8,0-3.5-0.4-5.1-1.3c-1.1,0.5-2.3,0.7-3.9,0.7h-0.5c-0.2,0-0.3-0.1-0.4-0.4c-0.1-0.3-0.2-0.6-0.2-1
			s0.1-0.7,0.2-1c0.1-0.3,0.3-0.4,0.4-0.4H26c0.6,0,1.1,0,1.7-0.1c-0.3-0.6-0.5-1.2-0.5-1.8c0-1.7,0.8-3.4,2.5-5.2
			c2.2,0.4,4,1.3,5.5,2.6c1.5,1.3,2.2,2.8,2.2,4.5C37.4,66.1,36.7,67.2,35.1,67.2z M29.1,61.5c0,0.7,0.4,1.3,1.2,1.7
			c0.5-0.3,1-0.6,1.2-1s0.4-0.7,0.4-0.9c0-0.9-0.7-1.6-2-1.9C29.4,60.2,29.1,60.9,29.1,61.5z M34.9,64.9c0.4,0,0.5-0.2,0.5-0.5
			c0-1.2-0.6-2.2-1.7-3.3v0c0,1.1-0.5,2.2-1.4,3.1C33.4,64.7,34.3,64.9,34.9,64.9z"/>
		<path d="M41.5,70.7c-0.7,0-1.4-0.1-2.1-0.3l0.2-2.3c0.5,0.1,1,0.1,1.5,0.1c1.2,0,2.2-0.2,2.8-0.7s1.1-1,1.2-1.6
			c-0.7,0.3-1.4,0.4-2.2,0.4c-2.4,0-3.5-1.2-3.5-3.6c0-1.3,0.4-2.5,1.1-3.4c0.7-0.9,1.7-1.4,2.8-1.4c1.2,0,2.3,0.6,3,1.7
			c0.8,1.1,1.2,2.6,1.2,4.4c0,2.1-0.5,3.7-1.5,4.8C44.9,70.1,43.4,70.7,41.5,70.7z M43.8,63.9c0.5,0,1-0.1,1.5-0.2
			c0-0.8-0.3-1.6-0.7-2.2c-0.4-0.7-0.9-1-1.5-1c-0.5,0-0.9,0.2-1.2,0.6c-0.3,0.4-0.4,0.8-0.4,1.3c0,0.5,0.2,0.9,0.5,1.2
			C42.4,63.7,43,63.9,43.8,63.9z"/>
		<path d="M48.9,70.6c-0.6,0-1.2-0.1-1.8-0.2l0.2-2.3c0.3,0.1,0.7,0.1,1,0.1c1.2,0,2.1-0.4,2.7-1.1s0.8-1.7,0.8-2.8
			c0-0.9-0.3-2.3-0.8-4.2l2.3-0.7c0,0.1,0.1,0.3,0.2,0.7c0.1,0.3,0.1,0.5,0.2,0.6s0.1,0.3,0.1,0.5c0.1,0.2,0.1,0.4,0.2,0.5
			s0.1,0.3,0.2,0.4s0.1,0.3,0.2,0.5c0.4,0.8,1.1,1.1,2.2,1.1H57v2.8h-0.7c-1.1,0-1.9-0.3-2.5-0.8c-0.2,1.4-0.7,2.6-1.6,3.4
			C51.5,70.2,50.3,70.6,48.9,70.6z M53.1,58.7l-1.5-1.2l-1.2,1.4l-1.6-1.3l1.3-1.5l1.5,1.3l1.2-1.4l1.6,1.4L53.1,58.7z M51.2,53.7
			l1.5,1.2l-1.2,1.4L50,55.1L51.2,53.7z"/>
		<path d="M60.1,70.5l-1.5-1.3l-1.2,1.4l-1.6-1.4l1.3-1.5l1.5,1.2l1.2-1.4l1.6,1.3L60.1,70.5z M57,66.6c-0.2,0-0.3-0.1-0.4-0.4
			c-0.1-0.3-0.2-0.6-0.2-1s0.1-0.7,0.2-1c0.1-0.3,0.3-0.4,0.4-0.4h0.1c1,0,1.8-0.1,2.5-0.3c0-1.4-0.2-2.9-0.6-4.3l2.3-0.5
			c0.3,1.2,0.4,2.5,0.4,3.8s-0.1,2.4-0.4,3.2c-0.5,0.3-1.1,0.5-1.9,0.7C58.7,66.5,57.9,66.6,57,66.6L57,66.6L57,66.6z M59,72.8
			l-1.5-1.2l1.2-1.4l1.5,1.2L59,72.8z"/>
		<path d="M70.4,70.7c-0.7,0-1.4-0.1-2.1-0.3l0.2-2.3c0.5,0.1,1,0.1,1.5,0.1c1.2,0,2.2-0.2,2.8-0.7s1.1-1,1.2-1.6
			c-0.7,0.3-1.4,0.4-2.2,0.4c-2.4,0-3.6-1.2-3.6-3.6c0-1.3,0.4-2.5,1.1-3.4c0.7-0.9,1.7-1.4,2.8-1.4c1.2,0,2.3,0.6,3.1,1.7
			c0.8,1.1,1.2,2.6,1.2,4.4c0,2.1-0.5,3.7-1.5,4.8C73.8,70.1,72.3,70.7,70.4,70.7z M72.7,63.9c0.5,0,1-0.1,1.4-0.2
			c-0.1-0.8-0.3-1.6-0.7-2.2c-0.4-0.7-0.9-1-1.5-1c-0.5,0-0.9,0.2-1.2,0.6s-0.4,0.8-0.4,1.3c0,0.5,0.2,0.9,0.5,1.2
			C71.2,63.7,71.8,63.9,72.7,63.9z"/>
	</g>
	<g>
		<g>
			<defs>
				<rect id="SVGID_1_" x="106.6" y="-7.2" width="97" height="161.9"/>
			</defs>
			<clipPath id="SVGID_2_">
				<use xlink:href="#SVGID_1_"  style="overflow:visible;"/>
			</clipPath>
			<g class="st0">
				
					<image style="overflow:visible;enable-background:new    ;" width="350" height="524" xlink:href="../Icon_Folder/Links/Berlin.png"  transform="matrix(0.3741 0 0 0.3046 99.3085 -7.2453)">
				</image>
			</g>
		</g>
	</g>
	<g>
		<g>
			<defs>
				<rect id="SVGID_3_" x="92.5" y="-1.5" width="25.5" height="138.7"/>
			</defs>
			<clipPath id="SVGID_4_">
				<use xlink:href="#SVGID_3_"  style="overflow:visible;"/>
			</clipPath>
			<g transform="matrix(1 0 0 1 0 0)" class="st1">
				
					<image style="overflow:visible;enable-background:new    ;" width="350" height="524" xlink:href="../Icon_Folder/Links/Berlin.png"  transform="matrix(0.3282 0 0 0.2853 1.067 -8.8688)">
				</image>
			</g>
		</g>
	</g>
</g>
</svg>
