<svg xmlns="http://www.w3.org/2000/svg" viewBox="0 0 16.00061 16"><defs><style>.cls-1{fill:#f1f2f2;}</style></defs><title>Asset 11</title><g id="Layer_2" data-name="Layer 2"><g id="Layer_1-2" data-name="Layer 1"><path class="cls-1" d="M14.35036,9.89535a.47287.47287,0,0,1,.4251.76724.55118.55118,0,0,1-.42739.17164l-2.84379.00077,4.27238,4.27237c.37272.37311.18923.64529.09327.74507A.43437.43437,0,0,1,15.55264,16a.6461.6461,0,0,1-.44268-.2309L10.83529,11.496l.00115,2.8717a.47064.47064,0,0,1-.30583.48053l-.02752.0107-.14948.0237a.41549.41549,0,0,1-.32914-.16056.5448.5448,0,0,1-.125-.32c-.005-1.42438-.00382-4.50709-.00382-4.50709Z"/><path class="cls-1" d="M10.67864,11.1301v.20207q-.0001,1.51794.001,3.03586a.32016.32016,0,0,1-.2061.33407.27115.27115,0,0,1-.32717-.07808.39237.39237,0,0,1-.09007-.22277c-.005-1.424-.00432-4.34966-.00432-4.34966s.357,0,.52724,0q1.88567.00026,3.77133.00063c.22026.00007.34386.08667.36908.25647.03268.2201-.11381.36835-.372.36888q-1.12671.00232-2.25342.00074c-.30585,0-.61171,0-.95625,0,.06284.06829.09815.10956.13643.14785q2.19557,2.19626,4.39152,4.3921c.20393.204.23335.37809.09129.52559-.15052.15629-.32108.12979-.53652-.08555q-2.20251-2.20143-4.40478-4.40309C10.78113,11.22053,10.74336,11.18893,10.67864,11.1301Z"/><path class="cls-1" d="M6.10466,9.895s.00115,3.08271-.00382,4.50671a.548.548,0,0,1-.12386.31959.41655.41655,0,0,1-.32991.16132H5.61763l-.14756-.0344a.47065.47065,0,0,1-.30582-.48053L5.165,11.496.89073,15.7691A.64758.64758,0,0,1,.44766,16a.43437.43437,0,0,1-.31729-.14756c-.096-.09978-.27868-.372.09327-.74468L4.496,10.835l-2.84341-.00077a.552.552,0,0,1-.42777-.17164.47284.47284,0,0,1,.42471-.76724L5.42114,9.895Z"/><path class="cls-1" d="M5.32176,11.1301v.20207q.00011,1.51794-.001,3.03586a.32016.32016,0,0,0,.2061.33407.27117.27117,0,0,0,.32718-.07808.39242.39242,0,0,0,.09006-.22277c.005-1.424.00432-4.34966.00432-4.34966s-.357,0-.52724,0q-1.88566.00026-3.77133.00063c-.22026.00007-.34386.08667-.36908.25647-.03268.2201.11381.36835.372.36888q1.12669.00232,2.25341.00074c.30586,0,.61171,0,.95625,0-.06283.06829-.09815.10956-.13643.14785Q2.53052,13.02242.33456,15.21826c-.20393.204-.23334.37809-.09129.52559.15052.15629.32108.12979.53653-.08555q2.2025-2.20143,4.40477-4.40309C5.21927,11.22053,5.257,11.18893,5.32176,11.1301Z"/><path class="cls-1" d="M15.55264,0a.43342.43342,0,0,1,.31729.14794c.096.09978.27945.372-.09327.74507L11.50428,5.16538l2.84379.00077a.55118.55118,0,0,1,.42739.17164.4726.4726,0,0,1-.4251.76686l-4.45472.00076S9.89449,3.0227,9.89946,1.5987a.54407.54407,0,0,1,.125-.32073.41625.41625,0,0,1,.32914-.16018h.02944l.14756.03441a.47062.47062,0,0,1,.30583.48052l-.00115,2.8717L15.10958.23128A.6475.6475,0,0,1,15.55264,0Z"/><path class="cls-1" d="M10.67864,4.87022V4.66814q-.0001-1.51792.001-3.03586a.32016.32016,0,0,0-.2061-.33407.27115.27115,0,0,0-.32717.07808.39237.39237,0,0,0-.09007.22277c-.005,1.424-.00432,4.34966-.00432,4.34966s.357,0,.52724,0q1.88567-.00025,3.77133-.00062c.22026-.00007.34386-.08668.36908-.25647.03268-.22011-.11381-.36836-.372-.36889q-1.12671-.00232-2.25342-.00073c-.30585,0-.61171,0-.95625,0,.06284-.06829.09815-.10955.13643-.14785Q13.46989,2.9779,15.66584.78205c.20393-.204.23335-.37809.09129-.52559-.15052-.15629-.32108-.12979-.53652.08555Q13.0181,2.54344,10.81583,4.7451C10.78113,4.77978,10.74336,4.81138,10.67864,4.87022Z"/><path class="cls-1" d="M.44766,0A.64827.64827,0,0,1,.89073.23128L5.165,4.50442l-.00076-2.8717a.47062.47062,0,0,1,.30582-.48052l.02753-.01071.14947-.0237a.41548.41548,0,0,1,.32914.16056.54415.54415,0,0,1,.12463.32c.005,1.42438.00382,4.50709.00382,4.50709L1.64994,6.10465a.4726.4726,0,0,1-.4251-.76686.552.552,0,0,1,.42777-.17164L4.496,5.16538.22364.893C-.14831.5199.03442.24772.13037.14794A.43342.43342,0,0,1,.44766,0Z"/><path class="cls-1" d="M5.32176,4.87022V4.66814q.00011-1.51792-.001-3.03586a.32016.32016,0,0,1,.2061-.33407.27117.27117,0,0,1,.32718.07808.39242.39242,0,0,1,.09006.22277c.005,1.424.00432,4.34966.00432,4.34966s-.357,0-.52724,0Q3.53556,5.94847,1.64989,5.9481c-.22026-.00007-.34386-.08668-.36908-.25647-.03268-.22011.11381-.36836.372-.36889Q2.77955,5.32042,3.90626,5.322c.30586,0,.61171,0,.95625,0-.06283-.06829-.09815-.10955-.13643-.14785Q2.53052,2.9779.33456.78205C.13063.57807.10122.404.24327.25646.39379.10017.56435.12667.7798.342Q2.9823,2.54344,5.18457,4.7451C5.21927,4.77978,5.257,4.81138,5.32176,4.87022Z"/></g></g></svg>