<?xml version="1.0" encoding="utf-8"?>
<!-- Generator: Adobe Illustrator 23.0.3, SVG Export Plug-In . SVG Version: 6.00 Build 0)  -->
<svg version="1.1" id="Layer_1" xmlns="http://www.w3.org/2000/svg" xmlns:xlink="http://www.w3.org/1999/xlink" x="0px" y="0px"
	 viewBox="0 0 44.7 44.6" style="enable-background:new 0 0 44.7 44.6;" xml:space="preserve">
<style type="text/css">
	.st0{fill:#929496;}
</style>
<path class="st0" d="M44.2,0.4L44.2,0.4c-0.6-0.6-1.5-0.6-2.1,0c-3.4,3.4-10.3,10.4-14.3,14.3c0-3.8,0-7.6,0-11.4
	c0-0.8-0.7-1.5-1.5-1.5l0,0c-0.8,0-1.5,0.7-1.5,1.5c0,5.4,0,10.7,0,16.1c0,0.1,0,0.3,0,0.3c5.5,0,11,0,16.5,0c0.8,0,1.5-0.7,1.5-1.5
	l0,0c0-0.8-0.7-1.5-1.5-1.5c-3.8,0-7.7,0-11.5,0c3.9-3.9,10.9-10.9,14.3-14.3C44.8,2,44.8,1,44.2,0.4z"/>
<path class="st0" d="M0.4,44.2L0.4,44.2c0.6,0.6,1.5,0.6,2.1,0c3.4-3.4,10.4-10.4,14.3-14.3c0,3.8,0,7.6,0,11.4
	c0,0.8,0.7,1.5,1.5,1.5l0,0c0.8,0,1.5-0.7,1.5-1.5c0-5.4,0-10.7,0-16.1c0-0.1,0-0.3,0-0.3c-5.5,0-11,0-16.5,0
	c-0.8,0-1.5,0.7-1.5,1.5l0,0c0,0.8,0.6,1.5,1.5,1.5c3.8,0,7.6,0,11.5,0C10.8,31.7,3.8,38.7,0.4,42.1C-0.1,42.7-0.1,43.6,0.4,44.2z"
	/>
</svg>
