<?xml version="1.0" encoding="utf-8"?>
<!-- Generator: Adobe Illustrator 23.0.3, SVG Export Plug-In . SVG Version: 6.00 Build 0)  -->
<svg version="1.1" id="Layer_1" xmlns="http://www.w3.org/2000/svg" xmlns:xlink="http://www.w3.org/1999/xlink" x="0px" y="0px"
	 viewBox="0 0 45.6 42.9" style="enable-background:new 0 0 45.6 42.9;" xml:space="preserve">
<style type="text/css">
	.st0{fill:#929496;}
</style>
<g>
	<g>
		<polygon class="st0" points="44.1,8.9 36.6,8.9 36.6,1.4 38.1,1.4 38.1,7.4 44.1,7.4 		"/>
	</g>
	<g>
		<path class="st0" d="M45.6,42.9H12.3V31.5h23.6V14.6H12.3V0h26l7.2,7.2L45.6,42.9L45.6,42.9z M13.8,41.4h30.2V7.9l-6.3-6.3H13.8
			v11.5h23.6v20H13.8V41.4z"/>
	</g>
	<g>
		<polygon class="st0" points="13.1,33.1 0,33.1 0,13.1 13.1,13.1 13.1,14.6 1.5,14.6 1.5,31.5 13.1,31.5 		"/>
	</g>
	<g>
		<g>
			<path class="st0" d="M4.2,28.7V17h4.4c0.8,0,1.4,0,1.8,0.1c0.6,0.1,1,0.3,1.4,0.5c0.4,0.3,0.7,0.6,0.9,1.1c0.2,0.5,0.4,1,0.4,1.6
				c0,1-0.3,1.8-1,2.5c-0.6,0.7-1.8,1-3.4,1h-3v4.7L4.2,28.7L4.2,28.7z M5.8,22.5h3c1,0,1.7-0.2,2.1-0.6c0.4-0.4,0.6-0.9,0.6-1.6
				c0-0.5-0.1-0.9-0.4-1.3s-0.6-0.6-1-0.7c-0.3-0.1-0.7-0.1-1.4-0.1h-3C5.8,18.4,5.8,22.5,5.8,22.5z"/>
		</g>
		<g>
			<path class="st0" d="M15.1,28.7V17h4c0.9,0,1.6,0.1,2.1,0.2c0.7,0.2,1.2,0.4,1.7,0.8c0.6,0.5,1.1,1.2,1.4,2
				c0.3,0.8,0.5,1.7,0.5,2.8c0,0.9-0.1,1.7-0.3,2.3c-0.2,0.7-0.5,1.3-0.8,1.7c-0.3,0.5-0.7,0.8-1.1,1.1c-0.4,0.3-0.8,0.5-1.4,0.6
				s-1.2,0.2-1.9,0.2C19.3,28.7,15.1,28.7,15.1,28.7z M16.6,27.3h2.5c0.8,0,1.4-0.1,1.8-0.2c0.4-0.1,0.8-0.3,1-0.6
				c0.4-0.4,0.7-0.9,0.8-1.5c0.2-0.6,0.3-1.4,0.3-2.3c0-1.2-0.2-2.2-0.6-2.8c-0.4-0.7-0.9-1.1-1.5-1.3c-0.4-0.2-1.1-0.2-2-0.2h-2.5
				C16.7,18.4,16.7,27.3,16.6,27.3z"/>
		</g>
		<g>
			<path class="st0" d="M26.9,28.7V17h7.9v1.4h-6.3V22H34v1.4h-5.5v5.3L26.9,28.7L26.9,28.7z"/>
		</g>
	</g>
</g>
</svg>
