<svg xmlns="http://www.w3.org/2000/svg" viewBox="0 0 14.97168 14.08496"><defs><style>.cls-1{fill:#939598;}</style></defs><title>Asset 1</title><g id="Layer_2" data-name="Layer 2"><g id="Layer_1-2" data-name="Layer 1"><polygon class="cls-1" points="14.484 2.935 12.01 2.935 12.01 0.46 12.51 0.46 12.51 2.435 14.484 2.435 14.484 2.935"/><path class="cls-1" d="M14.97168,14.085H4.0459V10.35938h7.76269V4.79492H4.0459V0h8.55469l2.37109,2.37109Zm-10.42578-.5h9.92578V2.57813L12.39355.5H4.5459V4.29492h7.76269v6.56446H4.5459Z"/><polygon class="cls-1" points="4.296 10.859 0 10.859 0 4.295 4.296 4.295 4.296 4.795 0.5 4.795 0.5 10.359 4.296 10.359 4.296 10.859"/><path class="cls-1" d="M1.3961,9.41486V5.58649H2.8402a3.48594,3.48594,0,0,1,.58252.03662,1.15345,1.15345,0,0,1,.47265.17871.94025.94025,0,0,1,.30664.36963,1.2466,1.2466,0,0,1-.19433,1.34888,1.49154,1.49154,0,0,1-1.123.33813H1.9027v1.5564Zm.5066-2.0083h.98974a1.04967,1.04967,0,0,0,.69727-.18262.65187.65187,0,0,0,.2063-.51465.69237.69237,0,0,0-.12134-.41113.56741.56741,0,0,0-.32007-.22583,2.15344,2.15344,0,0,0-.47266-.03418H1.9027Z"/><path class="cls-1" d="M4.96324,9.41486V5.58649H6.28209a3.19528,3.19528,0,0,1,.68164.05493,1.29623,1.29623,0,0,1,.56128.27417,1.55858,1.55858,0,0,1,.45313.654,2.56884,2.56884,0,0,1,.15014.91016,2.67476,2.67476,0,0,1-.1018.773,1.87634,1.87634,0,0,1-.26123.55762,1.38563,1.38563,0,0,1-.34864.34716,1.424,1.424,0,0,1-.457.19214,2.6112,2.6112,0,0,1-.615.06519Zm.50659-.45166h.81739a1.98921,1.98921,0,0,0,.59424-.07056.85164.85164,0,0,0,.34326-.19849,1.2101,1.2101,0,0,0,.28076-.48437A2.37268,2.37268,0,0,0,7.60607,7.472a1.7794,1.7794,0,0,0-.19727-.9231.99173.99173,0,0,0-.47925-.43237,1.97909,1.97909,0,0,0-.65527-.07837H5.46983Z"/><path class="cls-1" d="M8.85167,9.41486V5.58649h2.58276v.45166H9.35826V7.22394h1.79663V7.6756H9.35826V9.41486Z"/></g></g></svg>