<?xml version="1.0" encoding="utf-8"?>
<!-- Generator: Adobe Illustrator 23.0.3, SVG Export Plug-In . SVG Version: 6.00 Build 0)  -->
<svg version="1.1" id="Layer_1" xmlns="http://www.w3.org/2000/svg" xmlns:xlink="http://www.w3.org/1999/xlink" x="0px" y="0px"
	 viewBox="0 0 27.1 43.6" style="enable-background:new 0 0 27.1 43.6;" xml:space="preserve">
<style type="text/css">
	.st0{fill:#00A693;}
</style>
<path class="st0" d="M27,15.1c0-0.5,0-1.1,0-1.6c-0.4-4.1-2-7.5-4.8-10.1C19.7,1.2,16.8,0,13.7,0c-0.9,0-1.8,0.1-2.8,0.3
	C7.6,1,4.8,3,2.7,6.1c-2.1,3-2.9,6.6-2.6,11c0,0.9,0.3,1.7,0.4,2.4c0.7,2.8,2,5.4,3.2,7.8c2.2,4.4,4.9,8.9,8.5,14.3
	c0.4,0.6,0.8,1.2,1.2,1.8l0.1,0.2c0.5-0.8,1-1.5,1.5-2.2c1.2-1.8,2.4-3.6,3.5-5.4c3.1-4.9,5.1-8.8,6.7-12.6c1-2.4,1.9-4.8,1.9-7.4
	C27,15.7,27,15.4,27,15.1z M18.3,16.7c-0.1,0.2-0.2,0.3-0.3,0.4c-0.1,0.2-0.3,0.3-0.4,0.5c-0.3,0.3-0.6,0.5-1,0.8c0,0,0,0,0,0
	c-0.5,0.3-1.1,0.6-1.7,0.7c0,0,0,0,0,0c-0.4,0.1-0.9,0.1-1.3,0.1c0,0,0,0,0,0c-0.4,0-0.9,0-1.3-0.1C12.1,19,12,19,11.8,19
	c-0.2-0.1-0.3-0.1-0.5-0.2c-0.3-0.1-0.7-0.3-1-0.5c-0.1-0.1-0.3-0.2-0.4-0.3s-0.3-0.2-0.4-0.4c-0.6-0.5-1-1.2-1.3-1.9
	c-0.1-0.1-0.1-0.3-0.2-0.4C8.1,15,8,14.9,8,14.7c0-0.1,0-0.2-0.1-0.3c0-0.3-0.1-0.5-0.1-0.8c0-1.6,0.6-3,1.7-4
	c0.6-0.6,1.4-1.1,2.3-1.4C12,8,12.2,8,12.4,8c0.4-0.1,0.8-0.1,1.2-0.1c0.6,0,1.2,0.1,1.7,0.3c0.2,0,0.3,0.1,0.5,0.2
	c0.2,0.1,0.3,0.2,0.5,0.2c0.5,0.3,0.9,0.6,1.3,1c0.4,0.4,0.7,0.8,1,1.3c0.1,0.3,0.3,0.6,0.4,0.9c0,0.1,0,0.2,0.1,0.3
	c0.1,0.3,0.2,0.6,0.2,0.9c0,0.2,0,0.4,0,0.7c0,0.6-0.1,1.2-0.3,1.7C18.8,15.8,18.6,16.3,18.3,16.7z"/>
</svg>
