<?xml version="1.0" encoding="utf-8"?>
<!-- Generator: Adobe Illustrator 23.0.3, SVG Export Plug-In . SVG Version: 6.00 Build 0)  -->
<svg version="1.1" id="Layer_1" xmlns="http://www.w3.org/2000/svg" xmlns:xlink="http://www.w3.org/1999/xlink" x="0px" y="0px"
	 viewBox="0 0 45.6 45.6" style="enable-background:new 0 0 45.6 45.6;" xml:space="preserve">
<style type="text/css">
	.st0{fill:#929496;}
</style>
<path class="st0" d="M45.6,20c-6.7,0-13.4,0-20,0c0-6.7,0-13.4,0-20c-1.9,0-3.7,0-5.5,0c0,6.7,0,13.4,0,20c-6.7,0-13.4,0-20,0
	c0,1.9,0,3.7,0,5.5c6.7,0,13.4,0,20,0c0,6.7,0,13.3,0,20c1.8,0,3.6,0,5.5,0c0-6.7,0-13.4,0-20c6.7,0,13.3,0,20,0
	C45.6,23.7,45.6,21.9,45.6,20z"/>
</svg>
