<?xml version="1.0" encoding="utf-8"?>
<!-- Generator: Adobe Illustrator 22.1.0, SVG Export Plug-In . SVG Version: 6.00 Build 0)  -->
<svg version="1.1" id="Layer_1" xmlns="http://www.w3.org/2000/svg" xmlns:xlink="http://www.w3.org/1999/xlink" x="0px" y="0px"
	 viewBox="0 0 26 26" style="enable-background:new 0 0 26 26;" xml:space="preserve">
<style type="text/css">
	.st0{fill:#00A693;}
	.st1{fill:#F1F1F2;}
</style>
<g>
	<rect class="st0" width="26" height="26"/>
	<g>
		<path class="st1" d="M9.8,7.1c2.5-2.2,6.3-2,8.7,0.3c2.4,2.3,2.6,6.1,0.5,8.7c-2.2,2.7-6.4,3.3-9.2,0.9c0,0-0.1,0.1-0.1,0.1
			c-1.1,1.1-2.1,2.1-3.2,3.2c-0.1,0.1-0.2,0.2-0.3,0.2c-0.2,0-0.4-0.1-0.5-0.3s-0.1-0.4,0.1-0.6c0.6-0.6,1.1-1.1,1.7-1.7
			c0.5-0.5,1.1-1.1,1.6-1.6C6.7,13.4,7.2,9.3,9.8,7.1z M14,17.5c3,0,5.5-2.4,5.5-5.4S17,6.6,14,6.6S8.5,9,8.5,12
			C8.5,15,11,17.5,14,17.5z"/>
	</g>
</g>
</svg>
