<?xml version="1.0" encoding="utf-8"?>
<!-- Generator: Adobe Illustrator 23.0.3, SVG Export Plug-In . SVG Version: 6.00 Build 0)  -->
<svg version="1.1" id="Layer_1" xmlns="http://www.w3.org/2000/svg" xmlns:xlink="http://www.w3.org/1999/xlink" x="0px" y="0px"
	 viewBox="0 0 45.6 45.6" style="enable-background:new 0 0 45.6 45.6;" xml:space="preserve">
<style type="text/css">
	.st0{fill:#00A693;}
	.st1{fill:#F1F1F2;}
</style>
<g>
	<rect class="st0" width="45.6" height="45.6"/>
	<g>
		<g>
			<path class="st1" d="M10.3,12.5c4.5-3.8,11.1-3.5,15.2,0.5c4.2,4.1,4.5,10.7,0.9,15.2c-3.9,4.8-11.2,5.8-16.2,1.5
				c-0.1,0.1-0.1,0.1-0.2,0.2c-1.9,1.9-3.7,3.7-5.6,5.6c-0.1,0.2-0.4,0.3-0.6,0.3c-0.4,0.1-0.7-0.1-0.9-0.5s-0.1-0.7,0.2-1
				c1-1,2-2,3-3c1-1,1.9-1.9,2.9-2.9C4.8,23.5,5.7,16.4,10.3,12.5z M17.6,30.6c5.3,0,9.6-4.3,9.6-9.5s-4.3-9.6-9.6-9.6
				S8,15.8,8,21.1C8,26.3,12.3,30.6,17.6,30.6z"/>
		</g>
		<g>
			<path class="st1" d="M42.3,7.3H3.3C2.8,7.3,2.5,7,2.5,6.5c0-0.5,0.4-0.8,0.8-0.8h39.1c0.5,0,0.8,0.4,0.8,0.8S42.8,7.3,42.3,7.3z"
				/>
		</g>
		<g>
			<path class="st1" d="M42.3,18.2h-9c-0.5,0-0.8-0.4-0.8-0.8c0-0.4,0.4-0.8,0.8-0.8h9c0.5,0,0.8,0.4,0.8,0.8
				C43.1,17.8,42.8,18.2,42.3,18.2z"/>
		</g>
		<g>
			<path class="st1" d="M42.3,29H31.8c-0.5,0-0.8-0.4-0.8-0.8s0.4-0.8,0.8-0.8h10.6c0.5,0,0.8,0.4,0.8,0.8S42.8,29,42.3,29z"/>
		</g>
		<g>
			<path class="st1" d="M42.3,39.9H9c-0.5,0-0.8-0.4-0.8-0.8s0.4-0.8,0.8-0.8h33.4c0.5,0,0.8,0.4,0.8,0.8S42.8,39.9,42.3,39.9z"/>
		</g>
	</g>
</g>
</svg>
