<?xml version="1.0" encoding="utf-8"?>
<!-- Generator: Adobe Illustrator 23.0.3, SVG Export Plug-In . SVG Version: 6.00 Build 0)  -->
<svg version="1.1" id="Layer_1" xmlns="http://www.w3.org/2000/svg" xmlns:xlink="http://www.w3.org/1999/xlink" x="0px" y="0px"
	 viewBox="0 0 45.6 45.6" style="enable-background:new 0 0 45.6 45.6;" xml:space="preserve">
<style type="text/css">
	.st0{fill:#00A693;}
	.st1{fill:#F1F1F2;}
</style>
<g>
	<rect class="st0" width="45.6" height="45.6"/>
	<g>
		<path class="st1" d="M17.2,12.5c4.5-3.8,11.1-3.5,15.2,0.5c4.2,4.1,4.5,10.7,0.9,15.2c-3.9,4.8-11.2,5.8-16.2,1.5
			c-0.1,0.1-0.1,0.1-0.2,0.2c-1.9,1.9-3.7,3.7-5.6,5.6c-0.1,0.2-0.4,0.3-0.6,0.3c-0.4,0.1-0.7-0.1-0.9-0.5s-0.1-0.7,0.2-1
			c1-1,2-2,3-3c1-1,1.9-1.9,2.9-2.9C11.7,23.5,12.6,16.4,17.2,12.5z M24.5,30.6c5.3,0,9.6-4.3,9.6-9.5s-4.3-9.6-9.6-9.6
			s-9.6,4.3-9.6,9.6C14.9,26.3,19.2,30.6,24.5,30.6z"/>
	</g>
</g>
</svg>
