<?xml version="1.0" encoding="utf-8"?>
<!-- Generator: Adobe Illustrator 23.0.3, SVG Export Plug-In . SVG Version: 6.00 Build 0)  -->
<svg version="1.1" id="Layer_1" xmlns="http://www.w3.org/2000/svg" xmlns:xlink="http://www.w3.org/1999/xlink" x="0px" y="0px"
	 viewBox="0 0 45.6 45.7" style="enable-background:new 0 0 45.6 45.7;" xml:space="preserve">
<style type="text/css">
	.st0{fill:#929496;}
</style>
<path class="st0" d="M37,28.6c-3.2,0-5.9,1.8-7.4,4.3l-13.1-6.8c0.4-1,0.6-2,0.6-3c0-1.1-0.2-2.2-0.6-3.1L29.8,13
	c1.5,2.5,4.2,4.1,7.3,4.1c4.7,0,8.5-3.8,8.5-8.5S41.7,0,37,0s-8.5,3.8-8.5,8.6c0,0.9,0.2,1.8,0.5,2.7l-13.4,7
	c-1.5-2.2-4.1-3.7-7-3.7C3.8,14.5,0,18.3,0,23s3.8,8.5,8.6,8.5c3,0,5.6-1.5,7.1-3.8l13.2,6.9c-0.2,0.8-0.4,1.6-0.4,2.4
	c0,4.7,3.8,8.5,8.5,8.5s8.5-3.8,8.5-8.5S41.7,28.6,37,28.6z M37,1.9c3.6,0,6.6,3,6.6,6.6s-3,6.6-6.6,6.6s-6.6-3-6.6-6.6
	S33.4,1.9,37,1.9z M8.5,29.6c-3.6,0-6.6-3-6.6-6.6s3-6.6,6.6-6.6s6.6,3,6.6,6.6S12.2,29.6,8.5,29.6z M37,43.7c-3.6,0-6.6-3-6.6-6.6
	s3-6.6,6.6-6.6s6.6,3,6.6,6.6S40.7,43.7,37,43.7z"/>
</svg>
