<svg xmlns="http://www.w3.org/2000/svg" viewBox="0 0 11.74292 11.7627"><defs><style>.cls-1{fill:#939598;}</style></defs><title>Asset 2</title><g id="Layer_2" data-name="Layer 2"><g id="Layer_1-2" data-name="Layer 1"><path class="cls-1" d="M9.54028,7.35718A2.19563,2.19563,0,0,0,7.63654,8.47211L4.25531,6.71259a2.12565,2.12565,0,0,0-.008-1.5896L7.66565,3.34418A2.19071,2.19071,0,1,0,7.3374,2.20264a2.17325,2.17325,0,0,0,.12036.68621L4.01331,4.68121a2.20091,2.20091,0,1,0,.01678,2.47773l3.4093,1.77417a2.17189,2.17189,0,0,0-.102.627A2.20276,2.20276,0,1,0,9.54028,7.35718ZM9.54028.5A1.70276,1.70276,0,1,1,7.8374,2.20264,1.70472,1.70472,0,0,1,9.54028.5ZM2.20264,7.6333A1.70264,1.70264,0,1,1,3.90552,5.93066,1.70472,1.70472,0,0,1,2.20264,7.6333Zm7.33764,3.6294a1.70276,1.70276,0,1,1,1.70264-1.70264A1.70477,1.70477,0,0,1,9.54028,11.2627Z"/></g></g></svg>