<?xml version="1.0" encoding="utf-8"?>
<!-- Generator: Adobe Illustrator 23.0.3, SVG Export Plug-In . SVG Version: 6.00 Build 0)  -->
<svg version="1.1" id="Layer_1" xmlns="http://www.w3.org/2000/svg" xmlns:xlink="http://www.w3.org/1999/xlink" x="0px" y="0px"
	 viewBox="0 0 46 33" style="enable-background:new 0 0 46 33;" xml:space="preserve">
<style type="text/css">
	.st0{fill:#00A693;}
	.st1{fill:#FFFFFF;}
</style>
<title>Asset 2</title>
<rect y="0" class="st0" width="46" height="33"/>
<g>
	<path class="st1" d="M31.2,5.3l-3.5-3.5H15.3v20.6h16V5.3z M27.6,2.7l2.7,2.7h-2.7V2.7z M16,21.7V2.5h10.9v3.6h3.6v15.6H16z"/>
	<rect x="18.2" y="8.5" class="st1" width="10.2" height="0.7"/>
	<rect x="18.2" y="10.5" class="st1" width="10.2" height="0.7"/>
	<rect x="18.2" y="12.5" class="st1" width="10.2" height="0.7"/>
	<rect x="18.2" y="14.6" class="st1" width="10.2" height="0.7"/>
	<rect x="18.2" y="16.6" class="st1" width="10.2" height="0.7"/>
	<rect x="18.2" y="18.7" class="st1" width="10.2" height="0.7"/>
	<path class="st1" d="M30.7,24.4v6.8h6.8v-6.8H30.7z M36.8,30.5h-5.3v-5.3h5.3V30.5z"/>
	<path class="st1" d="M15.9,31.2h6.8v-6.8h-6.8V31.2z M16.6,25.2h5.3v5.3h-5.3V25.2z"/>
	<path class="st1" d="M23.4,31.2h6.8v-6.8h-6.8V31.2z M24.1,25.2h5.3v5.3h-5.3V25.2z"/>
	<path class="st1" d="M8.5,31.2h6.8v-6.8H8.5V31.2z M9.2,25.2h5.3v5.3H9.2V25.2z"/>
</g>
</svg>
