<?xml version="1.0" encoding="utf-8"?>
<!-- Generator: Adobe Illustrator 23.0.3, SVG Export Plug-In . SVG Version: 6.00 Build 0)  -->
<svg version="1.1" id="Layer_1" xmlns="http://www.w3.org/2000/svg" xmlns:xlink="http://www.w3.org/1999/xlink" x="0px" y="0px"
	 viewBox="0 0 44.9 45.6" style="enable-background:new 0 0 44.9 45.6;" xml:space="preserve">
<style type="text/css">
	.st0{fill:#00A693;}
	.st1{fill:#FFFFFF;}
</style>
<rect class="st0" width="44.9" height="45.6"/>
<g>
	<g>
		<g>
			<path class="st1" d="M35.2,31.9H10.5V0h19.4l5.4,5.4L35.2,31.9L35.2,31.9z M11.6,30.8h22.5v-25l-4.7-4.7H11.6V30.8z"/>
		</g>
		<g>
			<polygon class="st1" points="34.1,6.6 28.5,6.6 28.5,1 29.7,1 29.7,5.5 34.1,5.5 			"/>
		</g>
		<g>
			<rect x="15" y="10.3" class="st1" width="15.8" height="1.1"/>
		</g>
		<g>
			<rect x="15" y="13.5" class="st1" width="15.8" height="1.1"/>
		</g>
		<g>
			<rect x="15" y="16.6" class="st1" width="15.8" height="1.1"/>
		</g>
		<g>
			<rect x="15" y="19.8" class="st1" width="15.8" height="1.1"/>
		</g>
		<g>
			<rect x="15" y="23" class="st1" width="15.8" height="1.1"/>
		</g>
		<g>
			<rect x="15" y="26.1" class="st1" width="15.8" height="1.1"/>
		</g>
	</g>
	<g>
		<g>
			<path class="st1" d="M44.9,45.6H34.4V35.1h10.5V45.6z M35.6,44.4h8.2v-8.2h-8.2V44.4z"/>
		</g>
		<g>
			<path class="st1" d="M21.9,45.6H11.4V35.1h10.5V45.6z M12.6,44.4h8.2v-8.2h-8.2C12.5,36.2,12.5,44.4,12.6,44.4z"/>
		</g>
		<g>
			<path class="st1" d="M33.5,45.6H23V35.1h10.5V45.6L33.5,45.6z M24.2,44.4h8.2v-8.2h-8.2V44.4z"/>
		</g>
		<g>
			<path class="st1" d="M10.5,45.6H0V35.1h10.5V45.6z M1.1,44.4h8.2v-8.2H1.1V44.4z"/>
		</g>
	</g>
</g>
</svg>
