<?xml version="1.0" encoding="utf-8"?>
<!-- Generator: Adobe Illustrator 23.0.3, SVG Export Plug-In . SVG Version: 6.00 Build 0)  -->
<svg version="1.1" id="Layer_1" xmlns="http://www.w3.org/2000/svg" xmlns:xlink="http://www.w3.org/1999/xlink" x="0px" y="0px"
	 viewBox="0 0 50 50" style="enable-background:new 0 0 50 50;" xml:space="preserve">
<style type="text/css">
	.st0{fill:#D0D1D3;}
	.st1{fill:#F1F1F2;}
</style>
<g>
	<path class="st0" d="M25,50C11.3,50,0,38.9,0,25C0,11.1,11.3,0,25.1,0C38.9,0.1,50,11.3,50,25C50,38.8,38.8,50,25,50z M19.3,33.3
		c-2.8,2.1-5.7,2.8-9,2.6c0.1,0.1,0.1,0.2,0.2,0.2c5.9,3.3,11.9,3.6,17.8,0.4c6.2-3.4,9.1-8.9,9.3-15.9c0-0.5,0.2-0.8,0.5-1.1
		c0.9-0.8,1.7-1.7,2.5-2.5c0,0-0.1-0.1-0.1-0.1c-1,0.3-2,0.5-3,0.8c1-1,1.9-2,2.3-3.3c-1,0.4-2,0.8-3,1.1c-0.5,0.2-0.9,0.1-1.4-0.3
		c-2.8-2.5-7.2-1.9-9.3,1.2c-1,1.5-1.3,3.1-1,5c-5.3-0.4-9.5-2.6-13-6.6c-0.8,1.5-1,3-0.7,4.5c0.3,1.5,1.2,2.7,2.4,3.7
		c0,0.1-0.1,0.1-0.1,0.2c-0.8-0.2-1.6-0.5-2.6-0.7c0.3,1,0.4,1.9,0.8,2.7c0.8,1.7,2.2,2.8,4,3.4c0,0.1,0,0.1,0,0.2
		c-0.8,0-1.5,0-2.4,0C14.5,31.6,16.4,33,19.3,33.3z"/>
	<path class="st1" d="M19.3,33.3c-2.8-0.3-4.7-1.7-5.8-4.4c0.9,0,1.6,0,2.4,0c0-0.1,0-0.1,0-0.2c-1.8-0.6-3.3-1.7-4-3.4
		c-0.4-0.8-0.5-1.7-0.8-2.7c1,0.3,1.8,0.5,2.6,0.7c0-0.1,0.1-0.1,0.1-0.2c-1.2-1-2.1-2.2-2.4-3.7c-0.3-1.5-0.1-3,0.7-4.5
		c3.4,4,7.7,6.2,13,6.6c-0.3-1.9,0-3.5,1-5c2.1-3.1,6.5-3.7,9.3-1.2c0.5,0.4,0.9,0.5,1.4,0.3c1-0.4,2-0.8,3-1.1
		c-0.4,1.3-1.3,2.3-2.3,3.3c1-0.3,2-0.5,3-0.8c0,0,0.1,0.1,0.1,0.1c-0.8,0.9-1.6,1.7-2.5,2.5c-0.4,0.3-0.5,0.6-0.5,1.1
		c-0.2,7-3.1,12.5-9.3,15.9c-5.9,3.2-12,2.9-17.8-0.4c0,0-0.1-0.1-0.2-0.2C13.6,36.1,16.5,35.4,19.3,33.3z"/>
</g>
</svg>
