<?xml version="1.0" encoding="utf-8"?>
<!-- Generator: Adobe Illustrator 23.0.3, SVG Export Plug-In . SVG Version: 6.00 Build 0)  -->
<svg version="1.1" id="Layer_1" xmlns="http://www.w3.org/2000/svg" xmlns:xlink="http://www.w3.org/1999/xlink" x="0px" y="0px"
	 viewBox="0 0 46 33" style="enable-background:new 0 0 46 33;" xml:space="preserve">
<style type="text/css">
	.st0{fill:#00A693;}
	.st1{fill:#FFFFFF;}
</style>
<rect class="st0" width="46" height="33"/>
<title>Asset 3</title>
<g>
	<path class="st1" d="M7,1.8v6v0.6v22.7h32V8.5V7.9v-6H7z M38.4,30.6H7.6V8.5h30.8V30.6z M7.6,7.9V2.4h30.8v5.4H7.6z"/>
	<path class="st1" d="M10.5,4.3c-0.6,0-1.1,0.5-1.1,1.1s0.5,1.1,1.1,1.1c0.6,0,1.1-0.5,1.1-1.1S11.1,4.3,10.5,4.3z M10.5,5.8
		c-0.3,0-0.5-0.2-0.5-0.5c0-0.3,0.2-0.5,0.5-0.5s0.5,0.2,0.5,0.5C10.9,5.6,10.7,5.8,10.5,5.8z"/>
	<path class="st1" d="M13.3,4.3c-0.6,0-1.1,0.5-1.1,1.1s0.5,1.1,1.1,1.1c0.6,0,1.1-0.5,1.1-1.1S13.9,4.3,13.3,4.3z M13.3,5.8
		c-0.3,0-0.5-0.2-0.5-0.5c0-0.3,0.2-0.5,0.5-0.5c0.3,0,0.5,0.2,0.5,0.5C13.8,5.6,13.6,5.8,13.3,5.8z"/>
	<path class="st1" d="M16.2,4.3c-0.6,0-1.1,0.5-1.1,1.1s0.5,1.1,1.1,1.1s1.1-0.5,1.1-1.1S16.8,4.3,16.2,4.3z M16.2,5.8
		c-0.3,0-0.5-0.2-0.5-0.5c0-0.3,0.2-0.5,0.5-0.5c0.3,0,0.5,0.2,0.5,0.5C16.7,5.6,16.5,5.8,16.2,5.8z"/>
	<path class="st1" d="M35.8,24.2h-4.4v4.4h4.4V24.2z M35.2,28H32v-3.2h3.2V28z"/>
	<rect x="24.6" y="27.6" class="st1" width="5.3" height="0.6"/>
	<rect x="24.6" y="24.7" class="st1" width="5.3" height="0.6"/>
	<path class="st1" d="M35.8,17.4h-4.4v4.4h4.4V17.4z M35.2,21.2H32V18h3.2V21.2z"/>
	<rect x="24.6" y="20.7" class="st1" width="5.3" height="0.6"/>
	<rect x="24.6" y="17.8" class="st1" width="5.3" height="0.6"/>
	<path class="st1" d="M35.8,10.5h-4.4v4.4h4.4V10.5z M35.2,14.3H32v-3.2h3.2V14.3z"/>
	<rect x="24.6" y="13.8" class="st1" width="5.3" height="0.6"/>
	<rect x="24.6" y="11" class="st1" width="5.3" height="0.6"/>
	<path class="st1" d="M21.7,24.2h-4.4v4.4h4.4V24.2z M21.1,28h-3.2v-3.2h3.2V28z"/>
	<rect x="10.5" y="27.6" class="st1" width="5.3" height="0.6"/>
	<rect x="10.5" y="24.7" class="st1" width="5.3" height="0.6"/>
	<path class="st1" d="M21.7,17.4h-4.4v4.4h4.4V17.4z M21.1,21.2h-3.2V18h3.2V21.2z"/>
	<rect x="10.5" y="20.7" class="st1" width="5.3" height="0.6"/>
	<rect x="10.5" y="17.8" class="st1" width="5.3" height="0.6"/>
	<path class="st1" d="M21.7,10.5h-4.4v4.4h4.4V10.5z M21.1,14.3h-3.2v-3.2h3.2V14.3z"/>
	<rect x="10.5" y="13.8" class="st1" width="5.3" height="0.6"/>
	<rect x="10.5" y="11" class="st1" width="5.3" height="0.6"/>
</g>
</svg>
