<?xml version="1.0" encoding="utf-8"?>
<!-- Generator: Adobe Illustrator 23.0.3, SVG Export Plug-In . SVG Version: 6.00 Build 0)  -->
<svg version="1.1" id="Layer_1" xmlns="http://www.w3.org/2000/svg" xmlns:xlink="http://www.w3.org/1999/xlink" x="0px" y="0px"
	 viewBox="0 0 46 33" style="enable-background:new 0 0 46 33;" xml:space="preserve">
<style type="text/css">
	.st0{fill:#00A693;}
	.st1{fill:#FFFFFF;}
</style>
<title>Asset 4</title>
<rect class="st0" width="46" height="33"/>
<g>
	<path class="st1" d="M37.7,4H23.4h-0.9H4.1V29h18.5h0.9h18.5V8.2L37.7,4z M22.5,28.1H5V4.9h17.6V28.1z M37.6,5.1l3.2,3.2h-3.2V5.1z
		 M23.5,28.1V4.9h13.2v4.3H41v18.9H23.5z"/>
	<rect x="26.1" y="12.1" class="st1" width="12.3" height="0.9"/>
	<rect x="26.1" y="14.6" class="st1" width="12.3" height="0.9"/>
	<rect x="26.1" y="17" class="st1" width="12.3" height="0.9"/>
	<rect x="26.1" y="19.5" class="st1" width="12.3" height="0.9"/>
	<rect x="26.1" y="22" class="st1" width="12.3" height="0.9"/>
	<rect x="26.1" y="24.5" class="st1" width="12.3" height="0.9"/>
	<rect x="7.6" y="12.1" class="st1" width="12.3" height="0.9"/>
	<rect x="7.6" y="14.6" class="st1" width="12.3" height="0.9"/>
	<rect x="7.6" y="17" class="st1" width="12.3" height="0.9"/>
	<rect x="7.6" y="19.5" class="st1" width="12.3" height="0.9"/>
	<rect x="7.6" y="22" class="st1" width="12.3" height="0.9"/>
	<rect x="7.6" y="24.5" class="st1" width="12.3" height="0.9"/>
</g>
</svg>
