<svg xmlns="http://www.w3.org/2000/svg" viewBox="0 0 26.14932 23.9565"><defs><style>.cls-1{fill:none;stroke:#939598;stroke-miterlimit:10;stroke-width:0.5px;}</style></defs><title>Asset 3</title><g id="Layer_2" data-name="Layer 2"><g id="Layer_1-2" data-name="Layer 1"><rect class="cls-1" x="0.25" y="5.16723" width="25.64932" height="18.53927"/><rect class="cls-1" x="0.25" y="0.25" width="25.64932" height="4.91723"/><circle class="cls-1" cx="2.83598" cy="2.89135" r="0.63311"/><circle class="cls-1" cx="5.18385" cy="2.89135" r="0.63311"/><circle class="cls-1" cx="7.53171" cy="2.89135" r="0.63311"/><rect class="cls-1" x="20.20824" y="18.55255" width="3.10926" height="3.10926" transform="translate(43.52575 40.21436) rotate(180)"/><line class="cls-1" x1="18.71314" y1="21.27004" x2="14.36073" y2="21.27004"/><line class="cls-1" x1="18.71314" y1="18.94432" x2="14.36073" y2="18.94432"/><rect class="cls-1" x="20.20824" y="12.93761" width="3.10926" height="3.10926" transform="translate(43.52575 28.98448) rotate(180)"/><line class="cls-1" x1="18.71314" y1="15.6551" x2="14.36073" y2="15.6551"/><line class="cls-1" x1="18.71314" y1="13.32938" x2="14.36073" y2="13.32938"/><rect class="cls-1" x="20.20824" y="7.32267" width="3.10926" height="3.10926" transform="translate(43.52575 17.7546) rotate(180)"/><line class="cls-1" x1="18.71314" y1="10.04016" x2="14.36073" y2="10.04016"/><line class="cls-1" x1="18.71314" y1="7.71444" x2="14.36073" y2="7.71444"/><rect class="cls-1" x="8.67934" y="18.55255" width="3.10926" height="3.10926" transform="translate(20.46794 40.21436) rotate(180)"/><line class="cls-1" x1="7.18424" y1="21.27004" x2="2.83183" y2="21.27004"/><line class="cls-1" x1="7.18424" y1="18.94432" x2="2.83183" y2="18.94432"/><rect class="cls-1" x="8.67934" y="12.93761" width="3.10926" height="3.10926" transform="translate(20.46794 28.98448) rotate(180)"/><line class="cls-1" x1="7.18424" y1="15.6551" x2="2.83183" y2="15.6551"/><line class="cls-1" x1="7.18424" y1="13.32938" x2="2.83183" y2="13.32938"/><rect class="cls-1" x="8.67934" y="7.32267" width="3.10926" height="3.10926" transform="translate(20.46794 17.7546) rotate(180)"/><line class="cls-1" x1="7.18424" y1="10.04016" x2="2.83183" y2="10.04016"/><line class="cls-1" x1="7.18424" y1="7.71444" x2="2.83183" y2="7.71444"/></g></g></svg>