<?xml version="1.0" encoding="utf-8"?>
<!-- Generator: Adobe Illustrator 23.0.3, SVG Export Plug-In . SVG Version: 6.00 Build 0)  -->
<svg version="1.1" id="Layer_1" xmlns="http://www.w3.org/2000/svg" xmlns:xlink="http://www.w3.org/1999/xlink" x="0px" y="0px"
	 viewBox="0 0 45.6 41.8" style="enable-background:new 0 0 45.6 41.8;" xml:space="preserve">
<style type="text/css">
	.st0{fill:#929496;}
</style>
<g>
	<g>
		<g>
			<path class="st0" d="M45.6,41.8H0V8.5h45.6V41.8z M1.2,40.6h43.1V9.7H1.2V40.6z"/>
		</g>
		<g>
			<path class="st0" d="M45.6,9.7H0V0h45.6V9.7z M1.2,8.5h43.1V1.2H1.2V8.5z"/>
		</g>
	</g>
	<g>
		<path class="st0" d="M5.1,6.9c-0.9,0-1.7-0.8-1.7-1.7s0.8-1.7,1.7-1.7c0.9,0,1.7,0.8,1.7,1.7S6,6.9,5.1,6.9z M5.1,4.7
			c-0.3,0-0.5,0.2-0.5,0.5c0,0.3,0.2,0.5,0.5,0.5c0.3,0,0.5-0.2,0.5-0.5C5.6,4.9,5.4,4.7,5.1,4.7z"/>
	</g>
	<g>
		<path class="st0" d="M9.1,6.9c-0.9,0-1.7-0.8-1.7-1.7s0.8-1.7,1.7-1.7s1.7,0.8,1.7,1.7S10.1,6.9,9.1,6.9z M9.1,4.7
			c-0.3,0-0.5,0.2-0.5,0.5c0,0.3,0.2,0.5,0.5,0.5s0.5-0.2,0.5-0.5C9.6,4.9,9.4,4.7,9.1,4.7z"/>
	</g>
	<g>
		<path class="st0" d="M13.2,6.9c-0.9,0-1.7-0.8-1.7-1.7s0.8-1.7,1.7-1.7s1.7,0.8,1.7,1.7S14.2,6.9,13.2,6.9z M13.2,4.7
			c-0.3,0-0.5,0.2-0.5,0.5c0,0.3,0.2,0.5,0.5,0.5c0.3,0,0.5-0.2,0.5-0.5C13.7,4.9,13.5,4.7,13.2,4.7z"/>
	</g>
	<g>
		<g>
			<g>
				<path class="st0" d="M41.1,38.3h-6.6v-6.6h6.6V38.3z M35.7,37h4.2v-4.2h-4.2V37z"/>
			</g>
			<g>
				<g>
					<rect x="25" y="36.4" class="st0" width="7.5" height="1.2"/>
				</g>
				<g>
					<g>
						<rect x="25" y="32.3" class="st0" width="7.5" height="1.2"/>
					</g>
				</g>
			</g>
			<g>
				<path class="st0" d="M41.1,28.6h-6.6V22h6.6V28.6z M35.7,27.3h4.2v-4.2h-4.2V27.3z"/>
			</g>
			<g>
				<g>
					<rect x="25" y="26.6" class="st0" width="7.5" height="1.2"/>
				</g>
				<g>
					<g>
						<rect x="25" y="22.6" class="st0" width="7.5" height="1.2"/>
					</g>
				</g>
			</g>
			<g>
				<path class="st0" d="M41.1,18.8h-6.6v-6.6h6.6V18.8z M35.7,17.6h4.2v-4.1h-4.2V17.6z"/>
			</g>
			<g>
				<g>
					<rect x="25" y="16.9" class="st0" width="7.5" height="1.2"/>
				</g>
				<g>
					<g>
						<rect x="25" y="12.9" class="st0" width="7.5" height="1.2"/>
					</g>
				</g>
			</g>
		</g>
		<g>
			<g>
				<path class="st0" d="M21.2,38.3h-6.6v-6.6h6.6V38.3z M15.8,37H20v-4.2h-4.2V37z"/>
			</g>
			<g>
				<g>
					<rect x="5.1" y="36.4" class="st0" width="7.5" height="1.2"/>
				</g>
				<g>
					<g>
						<rect x="5.1" y="32.3" class="st0" width="7.5" height="1.2"/>
					</g>
				</g>
			</g>
			<g>
				<path class="st0" d="M21.2,28.6h-6.6V22h6.6V28.6z M15.8,27.3H20v-4.2h-4.2V27.3z"/>
			</g>
			<g>
				<g>
					<rect x="5.1" y="26.6" class="st0" width="7.5" height="1.2"/>
				</g>
				<g>
					<g>
						<rect x="5.1" y="22.6" class="st0" width="7.5" height="1.2"/>
					</g>
				</g>
			</g>
			<g>
				<path class="st0" d="M21.2,18.8h-6.6v-6.6h6.6V18.8z M15.8,17.6H20v-4.1h-4.2V17.6z"/>
			</g>
			<g>
				<g>
					<rect x="5.1" y="16.9" class="st0" width="7.5" height="1.2"/>
				</g>
				<g>
					<g>
						<rect x="5.1" y="12.9" class="st0" width="7.5" height="1.2"/>
					</g>
				</g>
			</g>
		</g>
	</g>
</g>
</svg>
