<?xml version="1.0" encoding="utf-8"?>
<!-- Generator: Adobe Illustrator 23.0.3, SVG Export Plug-In . SVG Version: 6.00 Build 0)  -->
<svg version="1.1" id="Layer_1" xmlns="http://www.w3.org/2000/svg" xmlns:xlink="http://www.w3.org/1999/xlink" x="0px" y="0px"
	 viewBox="0 0 69.1 45.6" style="enable-background:new 0 0 69.1 45.6;" xml:space="preserve">
<style type="text/css">
	.st0{fill:#00A693;}
	.st1{fill:#FFFFFF;}
</style>
<rect class="st0" width="69.1" height="45.6"/>
<g>
	<g>
		<path class="st1" d="M35.4,45.6H0V0h35.4V45.6z M1.6,44h32.1V1.6H1.6V44z"/>
	</g>
	<g>
		<g>
			<path class="st1" d="M69.1,45.6H33.8V0h27.7l7.7,7.7L69.1,45.6L69.1,45.6z M35.4,44h32.1V8.3l-6.7-6.7H35.4V44L35.4,44z"/>
		</g>
		<g>
			<polygon class="st1" points="67.6,9.5 59.6,9.5 59.6,1.5 61.2,1.5 61.2,7.9 67.6,7.9 			"/>
		</g>
		<g>
			<rect x="40.2" y="14.7" class="st1" width="22.5" height="1.6"/>
		</g>
		<g>
			<rect x="40.2" y="19.3" class="st1" width="22.5" height="1.6"/>
		</g>
		<g>
			<rect x="40.2" y="23.8" class="st1" width="22.5" height="1.6"/>
		</g>
		<g>
			<rect x="40.2" y="28.3" class="st1" width="22.5" height="1.6"/>
		</g>
		<g>
			<rect x="40.2" y="32.8" class="st1" width="22.5" height="1.6"/>
		</g>
		<g>
			<rect x="40.2" y="37.3" class="st1" width="22.5" height="1.6"/>
		</g>
	</g>
	<g>
		<g>
			<rect x="6.5" y="14.7" class="st1" width="22.5" height="1.6"/>
		</g>
		<g>
			<rect x="6.5" y="19.3" class="st1" width="22.5" height="1.6"/>
		</g>
		<g>
			<rect x="6.5" y="23.8" class="st1" width="22.5" height="1.6"/>
		</g>
		<g>
			<rect x="6.5" y="28.3" class="st1" width="22.5" height="1.6"/>
		</g>
		<g>
			<rect x="6.5" y="32.8" class="st1" width="22.5" height="1.6"/>
		</g>
		<g>
			<rect x="6.5" y="37.3" class="st1" width="22.5" height="1.6"/>
		</g>
	</g>
</g>
</svg>
