<svg xmlns="http://www.w3.org/2000/svg" viewBox="0 0 21.36538 14.08526"><defs><style>.cls-1{fill:none;stroke:#939598;stroke-miterlimit:10;stroke-width:0.5px;}</style></defs><title>Asset 4</title><g id="Layer_2" data-name="Layer 2"><g id="Layer_1-2" data-name="Layer 1"><rect class="cls-1" x="0.25" y="0.25" width="10.42622" height="13.58526"/><polygon class="cls-1" points="21.115 13.835 10.69 13.835 10.69 0.25 18.891 0.25 21.115 2.475 21.115 13.835"/><polyline class="cls-1" points="18.654 0.461 18.654 2.686 20.878 2.686"/><line class="cls-1" x1="12.42735" y1="4.80498" x2="19.37778" y2="4.80498"/><line class="cls-1" x1="12.42735" y1="6.20033" x2="19.37778" y2="6.20033"/><line class="cls-1" x1="12.42735" y1="7.59568" x2="19.37778" y2="7.59568"/><line class="cls-1" x1="12.42735" y1="8.99103" x2="19.37778" y2="8.99103"/><line class="cls-1" x1="12.42735" y1="10.38638" x2="19.37778" y2="10.38638"/><line class="cls-1" x1="12.42735" y1="11.78173" x2="19.37778" y2="11.78173"/><line class="cls-1" x1="2.00172" y1="4.80498" x2="8.95214" y2="4.80498"/><line class="cls-1" x1="2.00172" y1="6.20033" x2="8.95214" y2="6.20033"/><line class="cls-1" x1="2.00172" y1="7.59568" x2="8.95214" y2="7.59568"/><line class="cls-1" x1="2.00172" y1="8.99103" x2="8.95214" y2="8.99103"/><line class="cls-1" x1="2.00172" y1="10.38638" x2="8.95214" y2="10.38638"/><line class="cls-1" x1="2.00172" y1="11.78173" x2="8.95214" y2="11.78173"/></g></g></svg>