<svg xmlns="http://www.w3.org/2000/svg" viewBox="0 0 15.67206 15.65629"><defs><style>.cls-1{fill:#f1f2f2;}</style></defs><title>Asset 1</title><g id="Layer_2" data-name="Layer 2"><g id="Layer_1-2" data-name="Layer 1"><g id="Layer_1-2-2" data-name="Layer 1-2"><path class="cls-1" d="M10.70633,9.86588l2.48915,2.48523c.82844.827,1.65694,1.654,2.47658,2.47223l-.83377.833-4.95371-4.9619a6.00138,6.00138,0,0,1-4.85338,1.2901A5.85,5.85,0,0,1,1.3316,9.81461,6.03385,6.03385,0,0,1,9.708,1.24747a5.90313,5.90313,0,0,1,2.3209,4.098A5.95921,5.95921,0,0,1,10.70633,9.86588ZM1.206,6.02924A4.82914,4.82914,0,1,0,6.0419,1.20685q-.01728,0-.03455.00007A4.83086,4.83086,0,0,0,1.206,6.02924Z"/></g><rect class="cls-1" x="2.99257" y="5.25437" width="6.08519" height="1.38607"/></g></g></svg>